<?xml version="1.0" encoding="UTF-8" standalone="no"?>
<!DOCTYPE svg PUBLIC "-//W3C//DTD SVG 1.1//EN" "http://www.w3.org/Graphics/SVG/1.1/DTD/svg11.dtd">
<svg width="100%" height="100%" viewBox="0 0 2048 2048" version="1.1" xmlns="http://www.w3.org/2000/svg" xmlns:xlink="http://www.w3.org/1999/xlink" xml:space="preserve" xmlns:serif="http://www.serif.com/" style="fill-rule:evenodd;clip-rule:evenodd;">
    <g transform="matrix(0.944296,0,0,0.944296,1024,1024)">
        <g transform="matrix(1,0,0,1,-1053.25,-1059.25)">
            <clipPath id="_clip1">
                <rect x="0" y="0" width="2106.51" height="2118.51"/>
            </clipPath>
            <g clip-path="url(#_clip1)">
                <g transform="matrix(-2.08344,0,0,2.08344,2120.23,-8.35266)">
                    <path d="M532.122,1020.01C592.972,1017.29 644.469,1006.08 699.255,983.621C794.284,944.671 878.189,875.609 934.489,790C977.079,725.239 1004.09,651.35 1013.99,572.5C1021.28,514.46 1017.71,451.767 1003.91,395.727C985.466,320.838 954.156,256.731 907.092,197.5C880.86,164.485 846.644,131.337 811.285,104.681C799.01,95.427 773.291,78.444 759.5,70.486C742.661,60.768 710.657,45.4 692.111,38.125C595.891,0.383 491.144,-6.208 390.5,19.147C269.058,49.741 159.351,128.765 88.754,236.5C62.575,276.45 40.732,323.374 27.562,367.958C17.091,403.404 12.552,426.935 7.879,470C6.189,485.571 6.149,538.023 7.813,554.5C16.625,641.709 41.467,714.727 86.599,786.075C118.567,836.61 168.127,888.461 220,925.64C299.862,982.88 393.03,1015.82 486.645,1019.91C496.465,1020.34 505.85,1020.76 507.5,1020.83C509.15,1020.91 520.23,1020.54 532.122,1020.01Z" style="fill:rgb(212,207,199);fill-rule:nonzero;stroke:rgb(212,207,199);stroke-width:0.8px;"/>
                </g>
                <g transform="matrix(-2.08344,0,0,2.08344,2120.23,-8.35266)">
                    <path d="M481,999.88C396.114,994.221 315.439,966.583 244,918.685C193.015,884.501 142.688,834.383 109.256,784.5C64.035,717.028 38.836,648.556 28.291,564.5C26.893,553.361 26.533,542.735 26.529,512.5C26.523,471.869 27.232,462.356 32.603,431C54.075,305.647 123.145,194.814 228.188,117.156C274.641,82.813 332.02,54.916 386.818,40.032C415.025,32.37 439.966,27.76 465.202,25.541C518.711,20.837 566.426,23.683 614.466,34.445C722.711,58.695 821.25,120.926 891.655,209.5C914.979,238.843 931.812,265.564 948.981,300.5C976.023,355.528 991.514,411.716 996.538,473C1004.87,574.587 980.421,677.694 927.202,765.441C898.667,812.489 855.977,860.389 810.5,896.386C757.67,938.203 695.314,969.246 630.619,985.939C583.611,998.069 529.487,1003.11 481,999.88Z" style="fill:rgb(18,48,48);fill-rule:nonzero;stroke:rgb(18,48,48);stroke-width:0.8px;"/>
                </g>
                <g transform="matrix(-2.08344,0,0,2.08344,2120.23,-8.35266)">
                    <path d="M537.638,959C625.697,953.644 705.82,923.914 778.5,869.627C823.6,835.94 864.375,790.881 893.473,742.57C910.161,714.865 928.911,672.916 936.007,647.409C937.217,643.059 938.835,638.79 939.603,637.921C940.449,636.965 941,634.106 941,630.671L941,625L87.289,625L86.722,632.497C86.191,639.52 86.46,640.926 90.985,654.747C112.479,720.396 147.899,777.773 197.988,828.08C243.778,874.071 298.475,909.401 359.662,932.511C415.171,953.476 477.05,962.686 537.638,959Z" style="fill:rgb(212,207,199);fill-rule:nonzero;stroke:black;stroke-width:0.8px;"/>
                </g>
                <g transform="matrix(-2.08344,0,0,2.08344,2120.23,-8.35266)">
                    <path d="M941,410.75L941,404.5L654.5,404.762C496.925,404.907 368,404.645 368,404.181C368,403.717 371.475,400.224 375.722,396.419C390.026,383.602 414.493,360.655 415.325,359.276C416.254,357.738 413.993,354.987 399.237,339.706L389.781,329.913L386.978,332.206C385.436,333.468 378.144,339.9 370.772,346.5C363.401,353.1 350.199,364.795 341.435,372.49C318.902,392.272 313.019,398.02 311.444,401.789L310.064,405.092L198.782,404.912L87.5,404.733L87.202,410.866L86.905,417L941,417L941,410.75Z" style="fill:rgb(212,207,199);fill-rule:nonzero;stroke:black;stroke-width:0.8px;"/>
                </g>
                <g transform="matrix(-2.08344,0,0,2.08344,2120.23,-8.35266)">
                    <path d="M553.766,367.048C572.697,363.19 589.943,356.221 604.389,346.594C634.409,326.585 654.566,298.516 663.7,264C667.132,251.029 667.987,228.093 665.6,213.024C661.147,184.906 648.216,159.872 627.621,139.499C610.9,122.958 595.349,113.389 573.121,105.963C556.257,100.329 545.399,98.61 527,98.662C503.048,98.731 484.015,103.015 464.25,112.787C456.246,116.744 456.196,116.852 457.608,127.154L458.215,131.587L468.425,126.469C486.659,117.329 500.012,114.007 521.5,113.267C559.636,111.952 591.9,124.062 616.918,149.081C647.315,179.477 659.385,222.403 648.883,262.756C640.504,294.95 614.94,326.357 584.66,341.659C550.018,359.165 505.79,359.45 471.736,342.385C457.691,335.347 447.857,328.109 436,316.081C413.622,293.379 402.505,268.66 401.267,238.847C399.993,208.169 409.842,179.397 429.478,156.434L432.956,152.367L429.706,145.563L426.456,138.758L420.331,145.305C407.454,159.071 399.093,173.289 393.121,191.575C387.822,207.797 386.579,215.833 386.558,234C386.522,263.976 394.426,286.815 414.5,314.74C415.262,315.799 413.882,317.671 408.714,322.591C403.983,327.095 402.167,329.471 402.714,330.442C403.146,331.208 406.591,335.033 410.369,338.943L417.237,346.052L422.369,341.342C425.191,338.752 428.305,335.816 429.289,334.816C430.273,333.817 431.326,333 431.629,333C431.933,333 434.503,334.956 437.341,337.346C452.55,350.156 475.469,361.482 495.5,366.086C514.041,370.349 535.806,370.708 553.766,367.048Z" style="fill:rgb(212,207,199);fill-rule:nonzero;stroke:black;stroke-width:0.8px;"/>
                </g>
                <g transform="matrix(-2.08344,0,0,2.08344,2120.23,-8.35266)">
                    <path d="M555.893,339.581C607.298,325.247 642.35,278.458 639.71,227.696C638.039,195.577 622.527,167.109 595.667,146.87C576.098,132.124 553.773,124.995 526.958,124.928C503.735,124.87 482.499,131.463 464.062,144.457L456.155,150.029L454.023,144.332C446.823,125.088 447.643,107.405 456.466,91.627C458.41,88.152 460,84.304 460,83.077C460,79.676 454.611,74.797 451.282,75.183C448.951,75.453 448.146,76.465 445.857,82C441.716,92.014 439.706,103.046 439.607,116.313L439.519,128.126L435.789,123.813C432.563,120.082 432.056,118.82 432.03,114.46C431.992,108.025 429.745,99.405 426.367,92.733C417.256,74.737 400.552,66.074 369.894,63.444C362.504,62.811 362.27,62.859 361.657,65.146C360.435,69.713 361.049,82.608 362.92,91.677C366.917,111.043 377.707,124.534 393.694,130.153C400.333,132.486 410.036,133.522 416.367,132.572L420.989,131.879L419.483,128.967C416.754,123.69 402.89,105.988 392.686,94.751L382.654,83.706L390.577,88.993C401.135,96.039 420.888,116.047 428.813,127.723C434.491,136.089 443.943,155.493 443.984,158.866C443.993,159.618 441.514,162.918 438.476,166.2C427.547,178.004 419.179,195.409 415.254,214.5C413.183,224.569 412.873,228.27 413.327,237.5C415.553,282.811 447.03,322.909 492.125,337.881C504.95,342.138 511.47,342.956 529.5,342.567C544.062,342.253 547.847,341.825 555.893,339.581Z" style="fill:rgb(212,207,199);fill-rule:nonzero;stroke:black;stroke-width:0.8px;"/>
                </g>
                <g transform="matrix(-2.08344,0,0,2.08344,2120.23,-8.35266)">
                    <path d="M489.876,940.754C483.046,927.225 481.508,918.479 484.479,910.06C487.865,900.463 493.359,895.936 508.849,889.977C514.707,887.724 527.825,881.894 538,877.023C555.268,868.755 557.232,868.054 567.5,866.504C581.927,864.326 609.224,857.323 625.462,851.633C632.592,849.135 638.562,847.229 638.73,847.397C639.268,847.935 626.845,854.313 615.666,859.239C609.707,861.865 597.107,866.762 587.666,870.121C554.336,881.981 537.256,889.849 525.911,898.572C518.21,904.493 514.232,909.28 510.649,916.937C507.909,922.791 507.549,924.687 507.173,935.234L506.753,947L493.029,947L489.876,940.754Z" style="fill:rgb(18,48,48);fill-rule:nonzero;stroke:black;stroke-width:0.8px;"/>
                </g>
                <g transform="matrix(-2.08344,0,0,2.08344,2120.23,-8.35266)">
                    <path d="M519.574,946.12C517.902,943.414 517.841,933.057 519.465,927.431C525.686,905.877 540.135,895.796 593.339,875.887C625.409,863.887 639.717,856.33 657.169,842.176C662.135,838.148 670.618,832.439 676.018,829.49C681.419,826.541 687.665,822.974 689.899,821.564C692.133,820.154 694.224,819 694.547,819C695.882,819 685.025,831.712 679,837.203C665.83,849.203 653.225,856.349 618.433,871.538C581.336,887.733 567.713,895.558 556,907.397C545.001,918.515 540.294,928.45 539.606,942L539.378,946.5L529.77,946.785C524.441,946.943 519.9,946.647 519.574,946.12Z" style="fill:rgb(18,48,48);fill-rule:nonzero;stroke:black;stroke-width:0.8px;"/>
                </g>
                <g transform="matrix(-2.08344,0,0,2.08344,2120.23,-8.35266)">
                    <path d="M469.015,945.263C467.649,945.008 463.523,941.962 459.847,938.494C448.087,927.4 438.704,923.244 408,915.527C375.75,907.421 363.502,902.36 348.866,891.092C335.736,880.983 321.59,862.263 303.456,831C275.641,783.045 255.934,761.922 207.333,727.971C187.285,713.966 174.892,703.976 167.466,695.832C160.741,688.457 151.175,674.334 146.243,664.5C142.971,657.974 136,640.199 136,638.38C136,638.126 139.651,638.05 144.114,638.21L152.227,638.5L154.613,646.774C161.714,671.396 175.65,688.166 206.006,708.617C229.458,724.415 231.168,725.772 236.06,732.44C246.77,747.041 272.492,774.255 288.36,787.774C297.943,795.938 300.057,798.847 313.956,823C344.668,876.37 357.154,885.491 427.5,905.951C435.34,908.231 446.12,912.28 452,915.152C460.809,919.455 463.708,921.507 470,927.892C474.125,932.078 478.766,937.865 480.312,940.752L483.125,946L477.312,945.864C474.116,945.789 470.382,945.519 469.015,945.263Z" style="fill:rgb(18,48,48);fill-rule:nonzero;stroke:black;stroke-width:0.8px;"/>
                </g>
                <g transform="matrix(-2.08344,0,0,2.08344,2120.23,-8.35266)">
                    <path d="M547.159,939.184C547.695,929.699 552.2,920.795 560.882,912.059C572.388,900.482 586.419,892.566 627.5,874.473C639.6,869.144 652.425,863.177 656,861.212C677.053,849.642 690.737,837.563 706.297,816.816C712.426,808.644 717.37,803.287 722.745,798.997C726.971,795.624 735.76,788.07 742.275,782.211C754.515,771.205 759.09,768.514 770.701,765.49C782.344,762.457 790.827,764.757 795.816,772.3C798.307,776.067 798.499,777.117 798.479,786.929C798.457,798.547 796.611,805.875 790.803,817.402C779.327,840.178 751.984,865.534 708,894.187C682.6,910.733 677.697,913.634 669,917.257C657.462,922.065 626.932,932.266 626.219,931.552C625.588,930.922 632.593,924.334 640,918.593C647.522,912.762 655.507,908.279 683.5,894.176C721.982,874.788 743.211,860.703 762.138,842C777.727,826.596 784.694,815.063 786.908,801C789.173,786.605 782.421,776.972 770.102,777.024C753.977,777.092 733.971,792.958 709.174,825.344C699.831,837.547 690.365,847.655 683.124,853.161C676.202,858.424 656.597,870.27 637,881.03C619.249,890.776 606.175,899.751 598.489,907.464C589.386,916.599 586.746,922.006 586.187,932.663L585.758,940.837L579.629,941.888C572.337,943.138 550.558,946 548.336,946C547.036,946 546.839,944.86 547.159,939.184Z" style="fill:rgb(18,48,48);fill-rule:nonzero;stroke:black;stroke-width:0.8px;"/>
                </g>
                <g transform="matrix(-2.08344,0,0,2.08344,2120.23,-8.35266)">
                    <path d="M440.138,941.341C412.561,936.493 382.508,927.997 356.119,917.591C343.303,912.536 331.394,904.133 318.22,890.849C305.368,877.891 299.157,868.292 284.993,839.5C277.958,825.2 270.297,810.575 267.969,807C255.176,787.354 239.662,773.513 211.665,756.768C174.407,734.482 154.314,716.904 136.383,690.906C126.432,676.48 120.197,663.506 114.441,645.25L112.155,638L128.835,638L131.996,647.487C137.294,663.39 146.6,680.169 157.943,694.269C168.449,707.329 181.49,718.286 207,735.489C243.769,760.284 264.764,780.244 283.799,808.5C287.134,813.45 296.181,828.232 303.903,841.349C320.356,869.296 326.505,878.116 336.74,888.451C353.42,905.294 369.612,913.251 405.002,921.997C426.021,927.192 432.943,929.432 441,933.651C447.607,937.11 454.891,942.501 453.994,943.268C453.722,943.5 447.487,942.633 440.138,941.341Z" style="fill:rgb(18,48,48);fill-rule:nonzero;stroke:black;stroke-width:0.8px;"/>
                </g>
                <g transform="matrix(-2.08344,0,0,2.08344,2120.23,-8.35266)">
                    <path d="M592.573,938.118C591.54,936.447 593.65,926.606 596.051,921.9C601.453,911.312 612.3,903.097 645.181,884.69C690.415,859.37 697.059,853.934 717.522,825.5C726.471,813.065 743.661,795.327 752.221,789.696C762.145,783.166 770.078,781.438 776.02,784.51C779.957,786.546 781,788.84 781,795.459C781,809.862 769.893,827.412 750.237,844.069C729.827,861.364 711.904,872.533 674.642,891.179C639.826,908.601 628.277,916.386 619.343,928.457C614.695,934.736 614.333,934.991 608.021,936.424C597.168,938.886 593.309,939.309 592.573,938.118Z" style="fill:rgb(18,48,48);fill-rule:nonzero;stroke:black;stroke-width:0.8px;"/>
                </g>
                <g transform="matrix(-2.08344,0,0,2.08344,2120.23,-8.35266)">
                    <path d="M673.712,883.873C683.391,880.317 694.778,872.978 701.113,866.213C707.913,858.952 708.962,855.934 703.75,858.629C694.471,863.425 672.021,877.443 668.75,880.483C662.437,886.35 664.023,887.434 673.712,883.873Z" style="fill:rgb(212,207,199);fill-rule:nonzero;stroke:black;stroke-width:0.8px;"/>
                </g>
                <g transform="matrix(-2.08344,0,0,2.08344,2120.23,-8.35266)">
                    <path d="M744.855,836.708C758.311,828.647 769.889,812.666 768.699,803.794C767.392,794.047 758.182,794.738 746.236,805.478C737.866,813.003 728,829.484 728,835.939C728,841.913 735.588,842.259 744.855,836.708Z" style="fill:rgb(212,207,199);fill-rule:nonzero;stroke:black;stroke-width:0.8px;"/>
                </g>
                <g transform="matrix(-2.08344,0,0,2.08344,2120.23,-8.35266)">
                    <path d="M468,915.805C457.053,907.868 449.694,904.887 417.793,895.465C388.704,886.874 377.068,882.162 364.593,873.923C352.486,865.927 343.775,857.003 334.83,843.43C328.26,833.459 314,809.605 314,808.583C314,808.283 318.163,810.763 323.25,814.094C330.892,819.098 333.291,821.327 337.05,826.913C344.321,837.719 348.917,842.863 358.254,850.647C373.144,863.058 387.362,870.819 406.363,876.905C422.405,882.044 431.774,883.438 450.5,883.47C470.592,883.505 480.569,881.914 501.322,875.363C513.72,871.45 516.143,871.002 524.822,871.022L534.5,871.044L530,873.118C527.525,874.258 519.039,877.842 511.141,881.081C494.264,888.004 491.117,889.766 484.669,895.903C478.912,901.382 476.35,906.021 474.714,913.928L473.5,919.792L468,915.805Z" style="fill:rgb(18,48,48);fill-rule:nonzero;stroke:black;stroke-width:0.8px;"/>
                </g>
                <g transform="matrix(-2.08344,0,0,2.08344,2120.23,-8.35266)">
                    <path d="M304.754,893.09C294.894,887.559 278.119,877.242 276.3,875.59C275.64,874.99 274.151,870.103 272.991,864.728C262.764,817.353 240.884,788.123 201.729,769.529C195.553,766.596 183.975,761.849 176,758.98C158.137,752.555 153.518,750.235 148.825,745.336C142.388,738.616 125.301,706.663 115.173,682.407C110.1,670.258 100,641.536 100,639.259C100,638.527 101.255,638 103,638C105.016,638 106,638.498 106,639.518C106,643.415 113.75,664.708 119.096,675.5C127.05,691.557 136.043,703.978 150.496,718.865C164.613,733.407 178.494,744.765 194.176,754.607C200.404,758.516 210.225,764.684 216,768.315C236.82,781.406 249.919,793.649 261.135,810.5C264.43,815.45 272.253,829.85 278.52,842.5C290.959,867.608 298.273,879.618 307.905,890.75C311.355,894.737 314.025,897.999 313.839,897.998C313.652,897.996 309.564,895.788 304.754,893.09Z" style="fill:rgb(18,48,48);fill-rule:nonzero;stroke:black;stroke-width:0.8px;"/>
                </g>
                <g transform="matrix(-2.08344,0,0,2.08344,2120.23,-8.35266)">
                    <path d="M437,875.959C414.156,873.178 389.102,863.973 371.023,851.718C365.893,848.24 348,831.123 348,829.693C348,829.166 348.551,829.213 349.26,829.8C349.952,830.375 357.868,834.259 366.851,838.431C402.873,855.161 434.195,864.125 473.339,868.909C482.051,869.974 489.363,871.03 489.589,871.255C489.814,871.481 484.937,872.635 478.749,873.821C465.622,876.336 447.654,877.256 437,875.959Z" style="fill:rgb(18,48,48);fill-rule:nonzero;stroke:black;stroke-width:0.8px;"/>
                </g>
                <g transform="matrix(-2.08344,0,0,2.08344,2120.23,-8.35266)">
                    <path d="M747.55,875.169C748.073,874.712 751.875,871.61 756,868.276C760.125,864.942 767.594,858.004 772.599,852.857C795.988,828.804 805.736,808.444 804.803,785.593C804.243,771.851 800.799,765.56 791,760.377C786.631,758.066 774.571,758.088 768.124,760.418C765.718,761.288 763.521,762 763.243,762C762.965,762 765.384,759.286 768.619,755.969C771.854,752.652 774.653,749.492 774.84,748.948C775.579,746.798 781.555,744.838 790.311,743.872C801.52,742.636 806.638,740.272 812.863,733.455C823.021,722.332 828.179,704.174 829.895,673.5C830.624,660.473 830.961,658.77 834.734,649L838.79,638.5L842.895,638.193C845.153,638.023 847,638.119 847,638.404C847,638.69 846.108,645.871 845.018,654.362C841.507,681.704 835.435,707.505 824.985,739.48C816.942,764.089 816.022,767.875 812.536,790.71C809.622,809.794 807.213,817.941 800.889,830.096C797.252,837.087 795.293,839.447 787.563,846.149C777.928,854.502 749.145,875.966 747.55,875.987C746.95,875.995 746.95,875.694 747.55,875.169Z" style="fill:rgb(18,48,48);fill-rule:nonzero;stroke:black;stroke-width:0.8px;"/>
                </g>
                <g transform="matrix(-2.08344,0,0,2.08344,2120.23,-8.35266)">
                    <path d="M255.748,861.356C249.59,856.767 246.827,854.044 246.423,852.167C244.383,842.677 240.472,830.495 237.541,824.5C228.965,806.961 211.683,794.862 189.083,790.575C184.552,789.716 180.221,788.664 179.46,788.237C177.065,786.897 157.979,761 159.386,761C161.378,761 200.634,776.734 205.852,779.624C232.515,794.392 248.943,813.776 259.353,842.752C261.895,849.826 266,864.751 266,866.917C266,868.752 264.796,868.099 255.748,861.356Z" style="fill:rgb(18,48,48);fill-rule:nonzero;stroke:black;stroke-width:0.8px;"/>
                </g>
                <g transform="matrix(-2.08344,0,0,2.08344,2120.23,-8.35266)">
                    <path d="M489.225,859.883C413.381,854.756 339.587,822.103 283.242,768.739C246.433,733.876 220.156,695.916 201.741,651C195.804,636.52 195.058,638 208.297,638L219.728,638L221.514,642.75C224.113,649.662 237.419,676.071 242.755,684.906C288.658,760.91 364.286,814.318 451.5,832.322C472.487,836.655 482.649,837.501 513.5,837.485C538.721,837.472 544.34,837.176 556.619,835.212C623.465,824.522 681.521,795.67 730.603,748.747C759.178,721.429 785.968,682.225 801.498,645C802.99,641.425 804.365,638.335 804.555,638.133C804.95,637.714 827.287,637.954 827.716,638.382C828.137,638.804 823.917,648.903 817.105,663.772C799.702,701.761 776.248,734.875 745.33,765.114C677.34,831.607 583.674,866.268 489.225,859.883Z" style="fill:rgb(18,48,48);fill-rule:nonzero;stroke:black;stroke-width:0.8px;"/>
                </g>
                <g transform="matrix(-2.08344,0,0,2.08344,2120.23,-8.35266)">
                    <path d="M229.5,839.991C221.11,832.894 206.587,818.845 194.104,805.75C185.807,797.047 186.113,796.625 197.832,800.603C214.213,806.165 224.84,814.937 231.821,828.66C233.742,832.436 238.282,846.087 237.764,846.531C237.619,846.656 233.9,843.713 229.5,839.991Z" style="fill:rgb(18,48,48);fill-rule:nonzero;stroke:black;stroke-width:0.8px;"/>
                </g>
                <g transform="matrix(-2.08344,0,0,2.08344,2120.23,-8.35266)">
                    <path d="M488.5,828.048C414.103,821.295 348.276,790.403 295.5,737.474C272.458,714.366 253.631,687.64 238.364,656.367C233.764,646.943 230,638.956 230,638.617C230,638.277 235.383,638 241.961,638L253.923,638L254.999,642.25C264.654,680.37 283.49,713.582 310.193,739.569C328.554,757.436 344.976,768.91 370,781.354C397.294,794.927 409,798.759 409,794.123C409,792.658 405.76,790.853 394.25,785.906C366.29,773.888 348.828,764.01 331,750.125C321.284,742.559 305.503,726.998 297.59,717.182C287.965,705.244 276.765,685.047 270.417,668.183C268.168,662.21 262.005,640.655 262.002,638.75C262.001,638.338 267.196,638 273.546,638L285.092,638L284.418,647.779C283.984,654.079 284.189,660.215 284.994,665.029C287.329,678.994 295.678,698 299.478,698C301.621,698 301.478,697.144 297.07,683.588C292.011,668.027 290.588,659.633 291.299,649.563C292.135,637.738 291.924,638 300.607,638L308,638L308.013,645.25C308.03,654.372 311.948,666.186 318.13,675.758C320.525,679.466 329.913,690.158 338.992,699.519C348.071,708.879 362.149,723.588 370.275,732.205C378.401,740.823 392.576,754.38 401.775,762.333C421.87,779.706 427.404,785.288 429.477,790.273C431.921,796.15 428.701,799.94 421.185,800.033L418.5,800.067L420.844,802.019C425.654,806.028 451.262,812.287 474.5,815.134C488.724,816.877 518.906,816.626 534.224,814.637C612.97,804.414 671.165,776.099 710.23,729C728.876,706.52 744.376,674.798 750.665,646.25L752.482,638L761.241,638C766.058,638 770,638.169 770,638.376C770,638.582 768.933,641.17 767.629,644.126C760.893,659.398 742.853,710.234 739.96,722.099C737.447,732.404 706.923,760.145 676,780.228C638.076,804.857 594.254,820.914 549.631,826.531C535.185,828.349 501.13,829.194 488.5,828.048Z" style="fill:rgb(18,48,48);fill-rule:nonzero;stroke:black;stroke-width:0.8px;"/>
                </g>
                <g transform="matrix(-2.08344,0,0,2.08344,2120.23,-8.35266)">
                    <path d="M378.447,766.02C382.368,764.529 383.712,760.717 381.76,756.623C380.318,753.599 351.546,725.787 335.359,711.771C325.696,703.404 318.303,702.637 315.353,709.697C312.278,717.056 316.312,725.989 327.881,737.439C340.042,749.475 357.409,761.374 368.312,765.142C374.418,767.252 375.061,767.308 378.447,766.02Z" style="fill:rgb(212,207,199);fill-rule:nonzero;stroke:black;stroke-width:0.8px;"/>
                </g>
                <g transform="matrix(-2.08344,0,0,2.08344,2120.23,-8.35266)">
                    <path d="M812.4,822.5C815.283,812.291 817.366,802.429 818.971,791.39C821.245,775.756 823.548,765.942 829.967,744.529C842.061,704.193 848.087,677.019 851.374,648C852.028,642.225 852.887,637.612 853.282,637.75C853.677,637.888 857.759,638 862.353,638L870.706,638L870.304,643.25C867.815,675.692 863.654,692.819 849.958,727C837.982,756.889 835,769.081 835,788.149L835,799.93L831.783,803.715C825.068,811.614 811.859,824.416 812.4,822.5Z" style="fill:rgb(18,48,48);fill-rule:nonzero;stroke:black;stroke-width:0.8px;"/>
                </g>
                <g transform="matrix(-2.08344,0,0,2.08344,2120.23,-8.35266)">
                    <path d="M475,808.499C462.169,806.93 447.804,803.588 443.848,801.251C442.038,800.182 439.943,797.402 438.39,794.008C432.802,781.794 431.509,779.874 424.122,772.829C419.895,768.798 410.73,760.643 403.754,754.707C396.778,748.772 384.642,737.112 376.785,728.797C368.928,720.482 354.85,705.844 345.5,696.268C321.906,672.104 316.202,662.669 315.233,646.211L314.745,637.922L323.983,638.211L333.22,638.5L337.096,649.383C347.352,678.176 362.087,701.759 383.967,724.399C405.896,747.09 432.833,764.023 462.951,774.047C518.999,792.703 586.735,784.614 634.5,753.561C645.906,746.146 661.782,733.131 669.032,725.252C690.28,702.161 706.124,673.218 712.552,645.75L714.366,638L719.683,638C722.607,638 725,638.175 725,638.39C725,638.604 724.295,642.493 723.434,647.033C719.791,666.239 711.902,684.865 699.307,704C689.898,718.294 689.898,718.294 696.934,711.5C707.398,701.394 717.616,684.441 723.789,666.943C726.172,660.187 731,641.156 731,638.517C731,638.233 734.186,638 738.079,638L745.159,638L744.464,641.25C740.79,658.448 733.941,676.837 724.834,693.958C705.094,731.072 668.124,764.386 625.995,783.024C598.057,795.384 562.807,804.988 532.506,808.496C517.013,810.289 489.653,810.291 475,808.499Z" style="fill:rgb(18,48,48);fill-rule:nonzero;stroke:black;stroke-width:0.8px;"/>
                </g>
                <g transform="matrix(-2.08344,0,0,2.08344,2120.23,-8.35266)">
                    <path d="M551.5,797.074C567.255,794.515 582.571,790.801 593.992,786.771C610.632,780.899 631.592,770.567 638.048,765.054C640.201,763.216 639.768,763.285 634.5,765.624C599.156,781.317 567.248,790.39 537.828,793.112C516.642,795.073 483.035,793.125 458.5,788.513C454.65,787.79 451.343,787.348 451.151,787.532C450.273,788.371 462.025,793.356 469.097,795.144C483.962,798.903 495.284,799.934 517.5,799.55C532.616,799.288 542.143,798.595 551.5,797.074Z" style="fill:rgb(212,207,199);fill-rule:nonzero;stroke:black;stroke-width:0.8px;"/>
                </g>
                <g transform="matrix(-2.08344,0,0,2.08344,2120.23,-8.35266)">
                    <path d="M841.432,785.25C843.427,763.978 844.695,759.469 858.225,725.5C869.689,696.72 874.682,677.031 876.484,653.5C876.821,649.1 877.34,643.813 877.636,641.75L878.176,638L888.655,638C898.166,638 899.087,638.162 898.619,639.75C898.335,640.713 896.95,646.265 895.54,652.089C892.177,665.984 887.466,680.225 878.508,703.577C869.999,725.759 866.345,739.598 865.387,753.266C864.732,762.612 864.526,763.281 860.601,768.843C853.816,778.457 842.8,792 841.767,792C841.175,792 841.045,789.373 841.432,785.25Z" style="fill:rgb(18,48,48);fill-rule:nonzero;stroke:black;stroke-width:0.8px;"/>
                </g>
                <g transform="matrix(-2.08344,0,0,2.08344,2120.23,-8.35266)">
                    <path d="M515,772.846C473.897,770.855 437.107,756.354 405.257,729.59C384.923,712.503 369.249,692.423 356.708,667.393C352.942,659.877 345,640.307 345,638.544C345,638.245 348.992,638 353.871,638L362.742,638L363.431,643.25C365.236,657.013 370.242,670.822 378.597,685.085C382.151,691.152 386.801,696.791 395.5,705.582C417.29,727.604 441.542,741.582 474.162,750.921C539.167,769.532 600.09,753.957 635.525,709.669C649.081,692.725 658.018,669.482 660.486,644.75L661.159,638L678.038,638L677.434,640.75C673.216,659.962 670.07,668.149 657.421,692.835C652.24,702.947 648,711.71 648,712.307C648,714.651 655.548,705.972 662.183,696C673.588,678.859 681.03,661.422 684.136,644.565L685.346,638L694.173,638C700.579,638 702.994,638.343 702.979,639.25C702.943,641.424 698.363,656.248 695.484,663.513C681.548,698.675 654.383,729.929 621.378,748.772C599.621,761.193 575.205,769.219 551,771.904C537.491,773.403 530.354,773.59 515,772.846Z" style="fill:rgb(18,48,48);fill-rule:nonzero;stroke:black;stroke-width:0.8px;"/>
                </g>
                <g transform="matrix(-2.08344,0,0,2.08344,2120.23,-8.35266)">
                    <path d="M506,750.321C463.667,743.443 435.217,731.412 409.83,709.652C401.85,702.812 392.593,692.629 387.11,684.66C379.436,673.507 371.009,650.464 371.003,640.619L371,636.738L374.75,637.358C376.813,637.699 381.03,637.983 384.122,637.989L389.744,638L390.419,642.25C391.411,648.49 397.41,665.888 401.083,673.172C419.918,710.528 459.685,735.499 505.256,738.587C527.719,740.109 555.685,733.414 575.5,721.771C604.757,704.58 624.382,679.208 631.757,649.041L634.456,638L643.228,638C648.052,638 652.338,638.011 652.75,638.024C653.754,638.057 653.201,645.558 651.404,656.265C649.794,665.863 645.343,679.408 640.976,688C633.198,703.305 618.656,719.461 603.727,729.384C581.2,744.357 556.263,751.13 524.651,750.864C515.768,750.789 507.375,750.545 506,750.321Z" style="fill:rgb(18,48,48);fill-rule:nonzero;stroke:black;stroke-width:0.8px;"/>
                </g>
                <g transform="matrix(-2.08344,0,0,2.08344,2120.23,-8.35266)">
                    <path d="M873.168,744.25C874.446,735.761 877.293,726.832 885.999,704C894.79,680.945 898.775,668.539 902.541,652.5C903.962,646.45 905.351,640.713 905.629,639.75C906.065,638.243 907.443,638 915.567,638C920.755,638 925,638.408 925,638.906C925,639.405 922.474,647.167 919.386,656.156C908.114,688.974 894.184,718.058 876.715,745.25C875.036,747.862 873.357,750 872.983,750C872.609,750 872.692,747.412 873.168,744.25Z" style="fill:rgb(18,48,48);fill-rule:nonzero;stroke:black;stroke-width:0.8px;"/>
                </g>
                <g transform="matrix(-2.08344,0,0,2.08344,2120.23,-8.35266)">
                    <path d="M785,737.47C785,737.313 788.812,731.856 793.471,725.342C802.388,712.875 811.668,697.865 818.72,684.5C823.742,674.983 823.973,675.965 821.03,694.315C816.155,724.702 808.306,735.486 789.75,737.292C787.138,737.546 785,737.626 785,737.47Z" style="fill:rgb(18,48,48);fill-rule:nonzero;stroke:black;stroke-width:0.8px;"/>
                </g>
                <g transform="matrix(-2.08344,0,0,2.08344,2120.23,-8.35266)">
                    <path d="M491.5,729.476C447.577,721.394 413.138,692.239 401.069,652.918C399.985,649.388 398.674,644.588 398.156,642.25L397.213,638L412.6,638L413.866,644.131C419.671,672.235 439.086,697.726 463.322,709.062C466.72,710.652 471.075,712.243 473,712.599C475.936,713.141 475.181,712.442 468.32,708.261C457.148,701.453 452.581,697.998 445.134,690.721C431.191,677.096 423.576,662.762 418.585,640.75L417.962,638L423.981,638C429.098,638 430,638.268 430,639.79C430,643.459 433.172,653.73 436.454,660.691C447.318,683.729 466.395,699.458 491.5,706.078C501.022,708.589 519.201,709.082 528.5,707.082C549.773,702.506 570.227,688.654 581.778,671C586.459,663.846 591.095,652.641 593.052,643.75L594.318,638L599.659,638C605.722,638 605.617,637.759 603.496,646.755C601.131,656.783 596.256,668.356 591.088,676.209C582.4,689.409 576.545,694.941 558,707.471C548.494,713.893 550.325,714.351 562.5,708.597C580.072,700.291 595.128,684.165 603.671,664.5C606.345,658.345 608.615,650.341 610.479,640.5L611.047,637.5L618.249,637.677C622.461,637.781 625.604,638.313 625.819,638.958C626.584,641.251 622.807,654.833 619.061,663.263C604.318,696.441 574.261,720.247 536.5,728.654C526.514,730.877 501.587,731.332 491.5,729.476Z" style="fill:rgb(18,48,48);fill-rule:nonzero;stroke:black;stroke-width:0.8px;"/>
                </g>
                <g transform="matrix(-2.08344,0,0,2.08344,2120.23,-8.35266)">
                    <path d="M754.561,697.25C758.009,687.487 764.42,670.275 768.809,659L776.789,638.5L785.395,638.211C790.273,638.047 794,638.327 794,638.857C794,640.414 784.648,659.879 779.037,670C770.698,685.043 750.707,714.868 748.897,714.967C748.565,714.985 751.114,707.013 754.561,697.25Z" style="fill:rgb(18,48,48);fill-rule:nonzero;stroke:black;stroke-width:0.8px;"/>
                </g>
                <g transform="matrix(-2.08344,0,0,2.08344,2120.23,-8.35266)">
                    <path d="M208.458,702.154C195.7,693.7 194.066,692.407 185.133,683.689C173.434,672.273 165.959,660.044 162.043,645.913C160.919,641.858 160,638.419 160,638.27C160,638.122 162.6,638 165.779,638L171.557,638L173.335,644.903C175.333,652.66 180.333,661.654 185.748,667.232C187.74,669.284 189.504,670.829 189.667,670.666C189.831,670.502 188.432,667.473 186.558,663.934C181.951,655.235 179.32,648.319 178.476,642.691L177.773,638L181.728,638C185.516,638 185.737,638.18 186.951,642.25C190.131,652.914 203.688,681.677 213.891,699.408C216.71,704.308 218.901,708.427 218.758,708.562C218.616,708.698 213.981,705.814 208.458,702.154Z" style="fill:rgb(18,48,48);fill-rule:nonzero;stroke:black;stroke-width:0.8px;"/>
                </g>
                <g transform="matrix(-2.08344,0,0,2.08344,2120.23,-8.35266)">
                    <path d="M498.075,699.913C474.878,695.362 454.272,679.862 444.064,659.287C441.787,654.698 437,640.427 437,638.228C437,638.056 440.427,638.047 444.616,638.208L452.232,638.5L453.931,644.002C460.25,664.462 475.65,680.013 495.202,685.676C504.847,688.469 519.371,688.819 528.54,686.478C550.131,680.966 568.007,663.243 572.897,642.5L574.075,637.5L580.137,637.844L586.199,638.188L585.518,642.844C583.822,654.444 576.436,667.577 565.464,678.5C554.061,689.853 542.226,696.361 527.186,699.548C519.875,701.098 505.06,701.283 498.075,699.913Z" style="fill:rgb(18,48,48);fill-rule:nonzero;stroke:black;stroke-width:0.8px;"/>
                </g>
                <g transform="matrix(-2.08344,0,0,2.08344,2120.23,-8.35266)">
                    <path d="M502.344,679.959C493.27,678.163 480.175,671.084 474.395,664.849C468.158,658.121 462.455,648.131 460.639,640.75L459.962,638L468.231,638.004L476.5,638.008L478.436,642.754C479.587,645.576 482.83,649.968 486.436,653.588C494.608,661.792 501.127,664.405 513.5,664.436C521.483,664.457 523.237,664.113 529.022,661.396C536.59,657.841 544.982,649.232 547.625,642.313C548.53,639.941 549.773,637.966 550.386,637.924C552.561,637.776 565.487,638.153 565.705,638.371C566.54,639.207 562.589,649.915 559.677,654.709C547.831,674.209 524.723,684.386 502.344,679.959Z" style="fill:rgb(18,48,48);fill-rule:nonzero;stroke:black;stroke-width:0.8px;"/>
                </g>
                <g transform="matrix(-2.08344,0,0,2.08344,2120.23,-8.35266)">
                    <path d="M506.717,656.956C498.616,654.947 491.066,649.676 487.45,643.506C486.103,641.206 485,638.914 484.999,638.412C484.999,637.878 496.592,637.616 512.999,637.78C528.4,637.935 541,638.409 541,638.835C541,640.669 534.978,648.879 532.163,650.884C524.5,656.341 514.172,658.805 506.717,656.956Z" style="fill:rgb(18,48,48);fill-rule:nonzero;stroke:black;stroke-width:0.8px;"/>
                </g>
                <g transform="matrix(-2.08344,0,0,2.08344,2120.23,-8.35266)">
                    <path d="M511.5,330.89C497.819,328.915 479.157,321.145 466.235,312.043C458.216,306.396 458.145,306.053 463.854,300.621L466.88,297.741L470.855,301.144C476.298,305.803 490.132,313.393 498,316.038C506.519,318.901 517.941,320.922 525.857,320.965C531.235,320.995 532.12,321.244 531.607,322.582C531.273,323.452 531,325.927 531,328.082L531,332L524.25,331.878C520.537,331.811 514.8,331.366 511.5,330.89Z" style="fill:rgb(18,48,48);fill-rule:nonzero;stroke:black;stroke-width:0.8px;"/>
                </g>
                <g transform="matrix(-2.08344,0,0,2.08344,2120.23,-8.35266)">
                    <path d="M538.647,327.984C537.23,320.902 537.437,320.588 544.75,318.7C554.655,316.142 565.734,311.027 575.624,304.446L584.353,298.638L588.174,303.069C590.275,305.506 591.996,307.795 591.997,308.156C592.002,309.242 581.986,316.091 574.509,320.114C566.315,324.524 551.676,329.597 544.397,330.55L539.294,331.219L538.647,327.984Z" style="fill:rgb(18,48,48);fill-rule:nonzero;stroke:black;stroke-width:0.8px;"/>
                </g>
                <g transform="matrix(-2.08344,0,0,2.08344,2120.23,-8.35266)">
                    <path d="M510.974,314.06C497.271,311.168 481.937,304.077 473.719,296.833L469.939,293.5L472.257,290.648L474.574,287.796L482.537,292.918C493.912,300.235 503.503,303.103 518.75,303.75L531,304.27L531,316L525.25,315.93C522.088,315.891 515.663,315.05 510.974,314.06Z" style="fill:rgb(18,48,48);fill-rule:nonzero;stroke:black;stroke-width:0.8px;"/>
                </g>
                <g transform="matrix(-2.08344,0,0,2.08344,2120.23,-8.35266)">
                    <path d="M535.451,309.454C535.07,306.404 534.925,303.795 535.129,303.655C535.333,303.516 539.999,302.408 545.498,301.194C554.964,299.104 565.66,294.708 572.655,290.033L575.81,287.924L577.968,290.955C579.155,292.622 579.845,294.442 579.501,294.998C578.245,297.03 566.529,304.35 558.619,308.045C551.541,311.351 540.292,315 537.178,315C536.609,315 535.832,312.504 535.451,309.454Z" style="fill:rgb(18,48,48);fill-rule:nonzero;stroke:black;stroke-width:0.8px;"/>
                </g>
                <g transform="matrix(-2.08344,0,0,2.08344,2120.23,-8.35266)">
                    <path d="M449.327,296.738C432.645,278.641 423.773,253.064 425.335,227.572C426.641,206.263 434.257,188.053 448.48,172.233C451.068,169.355 453.727,167 454.39,167C455.052,167 457.246,168.692 459.265,170.759L462.936,174.518L458.324,179.009C448.575,188.501 441.501,200.141 438.517,211.597C432.23,235.734 439.67,266.875 456.637,287.445L462.27,294.274L458.385,297.599C456.248,299.428 454.22,300.942 453.877,300.962C453.535,300.983 451.487,299.082 449.327,296.738Z" style="fill:rgb(18,48,48);fill-rule:nonzero;stroke:black;stroke-width:0.8px;"/>
                </g>
                <g transform="matrix(-2.08344,0,0,2.08344,2120.23,-8.35266)">
                    <path d="M594.644,296.362L590.787,292.778L596.144,287.21C603.946,279.099 604.035,278.992 607.477,273.517C615.16,261.298 617.547,251.129 616.713,234.18C615.733,214.247 609.356,194.293 599.636,180.742C587.932,164.424 567.985,153.294 541.899,148.524C536.73,147.579 532.05,146.682 531.5,146.53C530.94,146.376 530.652,144 530.846,141.127C531.189,136.066 531.235,136 534.486,136C536.297,136 541.366,136.68 545.75,137.512C584.425,144.849 614.038,171.19 625.004,208.013C632.171,232.078 627.114,264.216 612.858,285.21C607.821,292.627 601.201,300.011 599.623,299.973C599.005,299.958 596.765,298.333 594.644,296.362Z" style="fill:rgb(18,48,48);fill-rule:nonzero;stroke:black;stroke-width:0.8px;"/>
                </g>
                <g transform="matrix(-2.08344,0,0,2.08344,2120.23,-8.35266)">
                    <path d="M507.5,297.536C504.2,296.798 498.978,295.243 495.896,294.08C490.223,291.94 479.898,285.336 479.354,283.5C479.191,282.95 480.34,280.952 481.908,279.06L484.759,275.619L487.917,278.276C492.568,282.19 503.067,286.907 510.754,288.536C527.184,292.017 547.185,288.161 560.612,278.923L565.129,275.815L568.527,279.658L571.925,283.5L569.129,286.088C565.505,289.44 553.078,294.59 544.008,296.498C534.529,298.492 533.271,298.411 532.391,295.75L531.647,293.5L531.031,296C530.439,298.401 530.08,298.507 521.957,298.689C517.306,298.792 510.8,298.273 507.5,297.536Z" style="fill:rgb(18,48,48);fill-rule:nonzero;stroke:black;stroke-width:0.8px;"/>
                </g>
                <g transform="matrix(-2.08344,0,0,2.08344,2120.23,-8.35266)">
                    <path d="M459.023,281.95C447.623,266.575 443.132,253.448 442.277,233C441.875,223.393 442.131,218.996 443.381,214C445.985,203.596 451.421,193.935 459.544,185.278L466.843,177.5L470.104,180.701L473.364,183.903L468.864,188.715C455.066,203.466 448.12,228.898 452.398,249C454.455,258.666 460.386,270.8 467.029,278.93L472.282,285.36L469.585,287.68C468.102,288.956 466.462,290 465.94,290C465.418,290 462.306,286.378 459.023,281.95Z" style="fill:rgb(18,48,48);fill-rule:nonzero;stroke:black;stroke-width:0.8px;"/>
                </g>
                <g transform="matrix(-2.08344,0,0,2.08344,2120.23,-8.35266)">
                    <path d="M583.5,286L580.626,283L583.166,280.25C592.355,270.3 600.238,253.136 602.03,239.172C605.168,214.723 590.606,185.398 569.933,174.534C560.044,169.337 540.251,164 530.87,164C528.384,164 528.029,163.673 528.423,161.75C528.677,160.512 529.156,157.813 529.488,155.75C530.21,151.256 530.677,151.198 543.408,154.013C577.943,161.647 598.515,178.992 606.847,207.5C613.95,231.806 613.247,252.951 604.846,267.659C601.047,274.31 588.748,289 586.979,289C586.646,289 585.081,287.65 583.5,286Z" style="fill:rgb(18,48,48);fill-rule:nonzero;stroke:black;stroke-width:0.8px;"/>
                </g>
                <g transform="matrix(-2.08344,0,0,2.08344,2120.23,-8.35266)">
                    <path d="M513.495,284.052C498.89,280.901 485.601,271.88 478.235,260.117C467.969,243.724 470.779,214.853 484.066,200.202L487.057,196.904L490.029,199.02C493.224,201.296 493.905,200.579 491.532,197.441C490.724,196.374 490.049,195.185 490.032,194.799C489.961,193.233 502.976,187.075 509.796,185.448C530.622,180.479 560.381,188.289 570.305,201.326C581.957,216.633 583.115,236.004 573.543,255.5C571.653,259.35 568.762,264.075 567.12,266L564.134,269.5L556.672,262.138L559.985,258.365C570.063,246.886 572.105,228.483 564.819,214.811C556.287,198.803 532.864,189.498 513.68,194.495C505.932,196.513 501.349,198.982 495.37,204.357C479.41,218.707 478.369,244.508 493.12,260.143C498.33,265.666 506.618,271.053 513.428,273.343C524.078,276.924 539.801,274.651 549.457,268.134C552.011,266.41 554.505,265 554.999,265C555.494,265 557.138,266.626 558.654,268.613C561.356,272.156 561.372,272.256 559.455,273.693C548.643,281.803 526.352,286.827 513.495,284.052Z" style="fill:rgb(18,48,48);fill-rule:nonzero;stroke:black;stroke-width:0.8px;"/>
                </g>
                <g transform="matrix(-2.08344,0,0,2.08344,2120.23,-8.35266)">
                    <path d="M471.126,275.352C460.959,263.945 455.255,247.117 456.426,231.983C457.56,217.334 463.929,201.745 472.819,191.856L477.316,186.855L480.249,189.787L483.181,192.72L479.068,198.11C469.702,210.384 466.549,221.007 467.236,237.974C467.59,246.702 468.232,250.802 469.882,254.864C472.231,260.647 476.764,267.843 480.834,272.25L483.374,275L480.5,278C478.919,279.65 477.296,281 476.893,281C476.49,281 473.895,278.458 471.126,275.352Z" style="fill:rgb(18,48,48);fill-rule:nonzero;stroke:black;stroke-width:0.8px;"/>
                </g>
                <g transform="matrix(-2.08344,0,0,2.08344,2120.23,-8.35266)">
                    <path d="M571.838,276.371L568.21,272.743L571.681,268.195C580.308,256.893 585,243.362 585,229.787C585,197.272 559.951,177.621 520.566,179.24C507.549,179.775 500.284,181.897 490.731,187.956L486.309,190.76L483.687,187.474L481.065,184.188L484.491,181.575C490.005,177.369 501.709,172.201 509.795,170.402C524.733,167.079 548.671,170.297 565.385,177.875C578.666,183.897 590.67,199.568 595.014,216.556C598.822,231.444 597.15,246.008 589.968,260.5C586.294,267.914 577.731,280 576.152,280C575.775,280 573.834,278.367 571.838,276.371Z" style="fill:rgb(18,48,48);fill-rule:nonzero;stroke:black;stroke-width:0.8px;"/>
                </g>
                <g transform="matrix(-2.08344,0,0,2.08344,2120.23,-8.35266)">
                    <path d="M515.254,268.589C504.701,265.17 493.627,254.932 489.957,245.202C486.913,237.131 487.508,225.569 491.376,217.665C498.373,203.362 517.356,195.157 533.74,199.355C547.386,202.851 557.786,210.7 562.131,220.78C565.314,228.163 564.521,239.474 560.208,248.231C556.189,256.392 548.035,264.054 540.045,267.177C533.19,269.857 521.264,270.536 515.254,268.589Z" style="fill:rgb(18,48,48);fill-rule:nonzero;stroke:black;stroke-width:0.8px;"/>
                </g>
                <g transform="matrix(-2.08344,0,0,2.08344,2120.23,-8.35266)">
                    <path d="M536.812,258.341C541.198,255.556 538.89,254.5 528.416,254.5C519.376,254.5 518.083,254.255 513.777,251.723C501.814,244.691 499.522,227.671 509.266,218.227C512.902,214.703 519.56,212 524.605,212C532.363,212 543.657,218.846 546.986,225.566C549.799,231.244 549.526,235.798 545.966,242.565C542.841,248.505 543.082,250.744 546.721,249.588C549.856,248.593 553.194,241.457 553.747,234.566C554.361,226.912 551.591,219.438 547.786,218.482C546.489,218.157 544.993,216.903 544.464,215.695C542.839,211.995 533.624,207.778 525.964,207.23C520.277,206.823 518.397,207.132 513.865,209.217C503.351,214.057 498.044,222.034 498.044,233C498.044,240.18 499.939,245.425 504.476,250.799C507.543,254.433 515.553,258.935 521,260.087C525.671,261.075 533.947,260.161 536.812,258.341Z" style="fill:rgb(212,207,199);fill-rule:nonzero;stroke:black;stroke-width:0.8px;"/>
                </g>
                <g transform="matrix(-2.08344,0,0,2.08344,2120.23,-8.35266)">
                    <path d="M533.115,244.424C538.437,241.706 541.139,230.215 536.979,227.989C535.868,227.394 534.447,227.224 533.822,227.61C533.053,228.085 532.868,227.613 533.251,226.149C534.018,223.216 530.689,220.999 525.527,221.004C514.145,221.014 508.337,233.305 515.623,241.963C519.757,246.877 526.464,247.82 533.115,244.424Z" style="fill:none;fill-rule:nonzero;stroke:black;stroke-width:0.8px;"/>
                </g>
                <g transform="matrix(-2.08344,0,0,2.08344,2120.23,-8.35266)">
                    <path d="M475.839,178.226C471.522,173.009 471.361,173.501 479.186,168.001C492.303,158.782 509.826,152 520.529,152C524.616,152 524.756,152.109 525.358,155.75C526.699,163.865 526.901,163.639 517.75,164.287C506.955,165.051 495.305,168.822 486,174.563C481.875,177.109 478.223,179.363 477.884,179.572C477.545,179.781 476.625,179.176 475.839,178.226Z" style="fill:rgb(18,48,48);fill-rule:nonzero;stroke:black;stroke-width:0.8px;"/>
                </g>
                <g transform="matrix(-2.08344,0,0,2.08344,2120.23,-8.35266)">
                    <path d="M465.613,165.382C464.081,163.462 463.064,161.276 463.352,160.525C463.641,159.773 466.267,157.359 469.188,155.161C482.165,145.397 502.146,137.389 516.243,136.302L524,135.704L524.15,139.852C524.232,142.133 524.345,144.563 524.4,145.25C524.467,146.085 522.082,146.741 517.218,147.226C503.878,148.557 485.755,156.005 474,164.989C468.627,169.096 468.579,169.098 465.613,165.382Z" style="fill:rgb(18,48,48);fill-rule:nonzero;stroke:black;stroke-width:0.8px;"/>
                </g>
                <g transform="matrix(-2.08344,0,0,2.08344,2120.23,-8.35266)">
                    <path d="M735,833.414C735,833.092 736.455,829.904 738.234,826.33C745.457,811.817 762,798.041 762,806.54C762,810.445 758.748,815.953 752.77,822.175C745.609,829.627 735,836.338 735,833.414Z" style="fill:rgb(18,48,48);fill-rule:nonzero;stroke:black;stroke-width:0.8px;"/>
                </g>
                <g transform="matrix(-2.08344,0,0,2.08344,2120.23,-8.35266)">
                    <path d="M367.121,757.455C357.199,753.148 338.997,740.012 330.843,731.274C325.559,725.612 322,719.28 322,715.54C322,709.671 328.836,713.842 345.5,729.877C351,735.17 359.442,743.026 364.26,747.335C369.078,751.644 373.481,756.031 374.045,757.085C374.918,758.715 374.73,758.994 372.785,758.961C371.528,758.939 368.979,758.262 367.121,757.455Z" style="fill:rgb(18,48,48);fill-rule:nonzero;stroke:black;stroke-width:0.8px;"/>
                </g>
                <g transform="matrix(-2.08344,0,0,2.08344,2120.23,-8.35266)">
                    <path d="M523.259,241.201C517.839,240.385 516.092,231.646 520.635,228.073C523.748,225.624 526.076,225.471 529.928,227.463C538.219,231.75 532.925,242.656 523.259,241.201Z" style="fill:rgb(212,207,199);fill-rule:nonzero;stroke:black;stroke-width:0.8px;"/>
                </g>
            </g>
        </g>
    </g>
    <g transform="matrix(4.86617,0,0,4.86617,-4397.05,-3595.11)">
        <g transform="matrix(50,0,0,50,1301.79,972.74)">
        </g>
        <text x="923.741px" y="972.74px" style="font-family:'Oswald-Bold', 'Oswald';font-weight:700;font-size:50px;fill:rgb(232,145,42);">KNOW Y<tspan x="1080.41px " y="972.74px ">O</tspan>UR WOOD</text>
    </g>
</svg>
