<?xml version="1.0" encoding="UTF-8" standalone="no"?>
<!DOCTYPE svg PUBLIC "-//W3C//DTD SVG 1.1//EN" "http://www.w3.org/Graphics/SVG/1.1/DTD/svg11.dtd">
<svg width="100%" height="100%" viewBox="0 0 2048 2048" version="1.1" xmlns="http://www.w3.org/2000/svg" xmlns:xlink="http://www.w3.org/1999/xlink" xml:space="preserve" xmlns:serif="http://www.serif.com/" style="fill-rule:evenodd;clip-rule:evenodd;">
    <g transform="matrix(0.530569,0,0,0.530569,1026.04,1015.18)">
        <g transform="matrix(1,0,0,1,-1870.07,-1870.07)">
            <g transform="matrix(-3.65249,0,0,3.65249,3740.15,0)">
                <path d="M566.195,1017.64C668.791,1005.86 761.502,964.747 842.389,895.173C875.186,866.964 911.026,826.085 934.358,790.275C980.485,719.48 1006,646.582 1015.67,558C1017.98,536.864 1017.97,488.89 1015.66,466C1005.34,363.864 966.852,270.304 903.145,192.5C871.829,154.255 830.91,117.01 790.5,89.97C723.972,45.452 651.457,17.999 573.949,7.987C546.382,4.426 497.659,3.217 473.5,5.495C431.408,9.464 401.108,15.243 366.297,25.942C332.898,36.207 297.965,51.502 264.162,70.66C209.625,101.568 154.964,148.92 115.434,199.5C87.811,234.844 68.932,266.125 48.745,309.997C39.749,329.55 27.442,366.105 20.632,393.5C-0.494,478.493 1.718,569.053 27.02,655C47.735,725.366 80.898,786.456 127.991,841C190.868,913.827 267.714,965.79 356.5,995.518C393.389,1007.87 429.206,1015.28 469.5,1018.89C485.418,1020.32 550.183,1019.49 566.195,1017.64Z" style="fill:rgb(212,207,199);fill-rule:nonzero;"/>
            </g>
            <g transform="matrix(-3.65249,0,0,3.65249,3740.15,0)">
                <path d="M486.5,1000.31C463.085,999.105 430.435,994.53 405,988.892C344.184,975.41 278.505,944.895 225.558,905.521C175.344,868.181 130.872,820.185 99.059,769C74.421,729.358 57.168,690.223 43.622,643.25L42.108,638L981.896,638L981.025,640.75C980.546,642.263 978.019,650.475 975.411,659C956.247,721.632 921.898,782.348 876.407,834C863.809,848.304 836.775,874.813 823.5,885.88C803.002,902.969 781.396,918.395 758.5,932.288C742.935,941.733 704.209,960.951 687.5,967.523C624.133,992.444 554.433,1003.82 486.5,1000.31Z" style="fill:rgb(18,48,48);fill-rule:nonzero;"/>
            </g>
            <g transform="matrix(-3.65249,0,0,3.65249,3740.15,0)">
                <path d="M38.514,624C37.167,619.624 31.865,590.596 30.112,578C26.612,552.847 25.702,534.644 26.314,502C26.926,469.396 29.253,446.305 34.605,419.75L35.159,417L988.792,417L990.379,425.75C996.128,457.458 997.505,474.616 997.462,514C997.418,553.589 996.34,566.053 989.962,600.674C987.75,612.678 985.734,623.175 985.482,624C985.076,625.331 931.595,625.5 512,625.5C92.406,625.5 38.924,625.331 38.514,624Z" style="fill:rgb(18,48,48);fill-rule:nonzero;"/>
            </g>
            <g transform="matrix(-3.65249,0,0,3.65249,3740.15,0)">
                <path d="M38.595,404.153C37.853,402.953 45.318,374.777 50.16,360.5C67.243,310.125 92.374,261.934 122.243,222.269C153.343,180.971 185.407,149.081 226.5,118.581C253.278,98.705 270.863,87.935 300.994,72.953C354.961,46.12 412.19,29.909 471,24.798C489.669,23.175 533.512,23.194 551.5,24.832C625.64,31.585 694.325,54.037 758.568,92.521C771.102,100.029 796.835,117.604 805.996,124.913C858.268,166.618 897.366,210.665 929.454,264C937.735,277.764 954.645,310.957 960.529,325C965.143,336.009 975.576,365.056 978.317,374.519C982.522,389.041 985.922,403.318 985.383,404.19C984.713,405.273 39.264,405.237 38.595,404.153Z" style="fill:rgb(18,48,48);fill-rule:nonzero;"/>
            </g>
            <g transform="matrix(-7.63607,0,0,7.63607,5776.29,-253.237)">
                <path d="M307.198,381.773L307.5,376.547L311.965,375.789C317.951,374.773 322.4,370.402 322.4,365.537C322.4,361.283 319.296,356.783 315.648,355.75C314.192,355.337 311.763,354.654 310.25,354.231C307.811,353.549 307.466,352.927 307.195,348.731C306.895,344.064 306.844,344 303.445,344L300,344L300,364.833C300,376.292 300.3,385.967 300.667,386.333C301.033,386.7 302.585,387 304.114,387C306.763,387 306.91,386.75 307.198,381.773Z" style="fill:rgb(212,207,199);fill-rule:nonzero;"/>
                <path d="M310.721,350.97C310.649,350.497 310.501,349.467 310.441,348.522C310.309,346.484 310.169,345.175 309.913,344.327L309.217,342.848L308.593,342.118L307.82,341.532C306.973,341.024 305.666,340.748 303.445,340.748L296.748,340.748L296.748,364.833C296.748,375.402 297.025,384.489 297.349,386.475L297.73,387.742L298.367,388.633L299.285,389.314L300.306,389.74C301.219,390.029 302.672,390.252 304.114,390.252C305.065,390.252 305.798,390.196 306.373,390.06L307.356,389.721L308.376,389.064L309.313,387.954L309.977,386.295C310.197,385.398 310.324,384.035 310.444,381.961L310.597,379.32L312.51,378.995C320.207,377.688 325.652,371.793 325.652,365.537C325.652,359.88 321.385,353.995 316.534,352.621C315.075,352.208 312.641,351.523 311.126,351.099C311.001,351.064 310.851,351.015 310.721,350.97ZM307.198,381.773C306.91,386.75 306.763,387 304.114,387C302.585,387 301.033,386.7 300.667,386.333C300.3,385.967 300,376.292 300,364.833L300,344L303.445,344C306.844,344 306.895,344.064 307.195,348.731C307.466,352.927 307.811,353.549 310.25,354.231C311.763,354.654 314.192,355.337 315.648,355.75C319.296,356.783 322.4,361.283 322.4,365.537C322.4,370.402 317.951,374.773 311.965,375.789L307.5,376.547L307.198,381.773Z" style="fill:rgb(18,48,48);"/>
            </g>
            <g transform="matrix(-7.63607,0,0,7.63607,5776.29,-253.237)">
                <path d="M334,382C334,378.222 334.367,377 335.5,377C336.633,377 337,378.222 337,382C337,386.868 337.078,387 339.945,387C342.749,387 342.905,386.772 343.195,382.25C343.415,378.83 343.92,377.5 345,377.5C346.08,377.5 346.585,378.83 346.805,382.25C347.096,386.787 347.243,387 350.093,387C352.962,387 353.058,386.855 352.615,383.183C352.362,381.084 352.52,378.776 352.966,378.055C354.426,375.693 356,378.029 356,382.559C356,386.813 356.124,387 358.96,387L361.919,387L362.21,378.75C362.373,374.11 362.938,370.5 363.5,370.5C364.062,370.5 364.627,374.11 364.79,378.75L365.081,387L367.986,387C370.734,387 370.907,386.748 371.195,382.328C371.633,375.615 374,375.321 374,381.98L374,387.127L377.25,386.813C380.343,386.515 380.503,386.295 380.571,382.262C380.643,377.995 381.441,376.108 382.659,377.325C383.021,377.687 383.286,380.038 383.248,382.549C383.179,387.082 383.2,387.111 386.34,386.807C389.357,386.514 389.514,386.282 389.807,381.686C390.206,375.447 392.386,375.914 392.805,382.328C393.094,386.764 393.258,387 396.055,387L399,387L399,378.5C399,371.611 399.284,370 400.5,370C401.716,370 402,371.611 402,378.5L402,387L405,387C407.933,387 408,386.889 408,382C408,378.306 408.378,377 409.445,377C410.46,377 410.981,378.415 411.195,381.75C411.473,386.073 411.742,386.528 414.193,386.811C416.751,387.106 416.901,386.882 417.193,382.311C417.415,378.838 417.917,377.5 419,377.5C420.083,377.5 420.585,378.838 420.807,382.311C421.099,386.882 421.249,387.106 423.807,386.811C426.264,386.527 426.527,386.078 426.807,381.686C427.206,375.447 429.386,375.914 429.805,382.328C430.094,386.764 430.258,387 433.055,387L436,387L436,378.5C436,371.611 436.284,370 437.5,370C438.716,370 439,371.611 439,378.5L439,387L441.945,387C444.742,387 444.906,386.764 445.195,382.328C445.63,375.656 448,375.309 448,381.917L448,387L455,387L455,381.917C455,375.309 457.37,375.656 457.805,382.328C458.094,386.764 458.258,387 461.055,387C463.922,387 464,386.868 464,382C464,378.222 464.367,377 465.5,377C466.633,377 467,378.222 467,382C467,386.889 467.067,387 470,387L473,387L473,378.417C473,371.996 473.315,369.938 474.25,370.247C475.081,370.522 475.597,373.401 475.79,378.83L476.081,387L479.04,387C481.925,387 482,386.874 482,382C482,378.306 482.378,377 483.445,377C484.46,377 484.981,378.415 485.195,381.75C485.474,386.1 485.732,386.527 488.25,386.816C490.823,387.112 491.001,386.887 491.015,383.316C491.024,381.217 491.474,378.825 492.015,378C492.891,376.667 493.109,376.667 493.985,378C494.526,378.825 494.976,381.188 494.985,383.25C494.999,386.747 495.203,387 498,387C500.94,387 501,386.898 501,381.917C501,375.309 503.37,375.656 503.805,382.328C504.094,386.764 504.258,387 507.055,387L510,387L510,378.417C510,371.996 510.315,369.938 511.25,370.247C512.081,370.522 512.597,373.401 512.79,378.83L513.081,387L515.986,387C518.734,387 518.907,386.748 519.195,382.328C519.614,375.914 521.794,375.447 522.193,381.686C522.473,386.078 522.736,386.527 525.193,386.811C527.751,387.106 527.901,386.882 528.193,382.311C528.415,378.838 528.917,377.5 530,377.5C531.08,377.5 531.585,378.83 531.805,382.25C532.08,386.539 532.347,387 534.555,387C536.623,387 537.018,386.499 537.115,383.75C537.319,378.013 537.474,377.5 539,377.5C540.08,377.5 540.585,378.83 540.805,382.25C541.095,386.772 541.251,387 544.055,387L547,387L547,378.5C547,371.611 547.284,370 548.5,370C549.716,370 550,371.611 550,378.5L550,387L552.945,387C555.742,387 555.906,386.764 556.195,382.328C556.63,375.656 559,375.309 559,381.917C559,386.877 559.071,387 561.945,387C564.742,387 564.906,386.764 565.195,382.328C565.614,375.914 567.794,375.447 568.193,381.686C568.488,386.312 568.627,386.512 571.75,386.813L575,387.127L575,381.98C575,375.321 577.367,375.615 577.805,382.328C578.094,386.764 578.258,387 581.055,387L584,387L584,378.5C584,371.611 584.284,370 585.5,370C586.716,370 587,371.611 587,378.5L587,387L589.945,387C592.742,387 592.906,386.764 593.195,382.328C593.63,375.656 596,375.309 596,381.917C596,386.877 596.071,387 598.945,387C601.749,387 601.905,386.772 602.195,382.25C602.415,378.83 602.92,377.5 604,377.5C605.111,377.5 605.5,378.667 605.5,382C605.5,386.301 605.629,386.5 608.405,386.5C611.118,386.5 611.337,386.203 611.728,382.01C612.197,376.974 612.417,376.521 613.933,377.459C614.52,377.821 615,380.116 615,382.559C615,386.813 615.124,387 617.96,387L620.919,387L621.21,378.993C621.372,374.516 621.941,370.987 622.5,370.987C623.059,370.987 623.628,374.516 623.79,378.993L624.081,387L627.04,387C629.925,387 630,386.874 630,382C630,378.222 630.367,377 631.5,377C632.633,377 633,378.222 633,382C633,386.889 633.067,387 636,387C638.883,387 639,386.827 639,382.559C639,380.116 639.48,377.821 640.067,377.459C641.671,376.467 642.095,377.354 642.307,382.14C642.491,386.292 642.657,386.515 645.786,386.816C648.864,387.112 649.031,386.97 648.427,384.566C647.68,381.59 648.613,377 649.964,377C650.474,377 651.028,379.138 651.195,381.75C651.487,386.305 651.634,386.513 654.75,386.813L658,387.127L658,378.48C658,372.009 658.314,369.937 659.25,370.247C660.081,370.522 660.597,373.401 660.79,378.83L661.081,387L663.986,387C666.742,387 666.906,386.757 667.195,382.25C667.363,379.638 667.95,377.5 668.5,377.5C669.05,377.5 669.637,379.638 669.805,382.25C670.094,386.751 670.261,387 673,387C675.731,387 675.907,386.743 676.195,382.328C676.63,375.656 679,375.309 679,381.917L679,387L694.154,387L690.915,383.761C681.091,373.938 681.173,356.18 691.084,346.921L694.211,344L681,344L681,349C681,352.778 680.633,354 679.5,354C678.367,354 678,352.778 678,349L678,344L670,344L670,349C670,352.778 669.633,354 668.5,354C667.367,354 667,352.778 667,349L667,344L658.807,344L659.154,348.99C659.371,352.128 659.072,354.143 658.348,354.421C656.491,355.132 656,353.965 656,348.833L656,344L648.072,344L647.786,353.669C647.59,360.302 647.108,363.468 646.25,363.752C645.305,364.065 645,361.704 645,354.083L645,344L637,344L637,348.441C637,352.986 635.425,355.306 633.954,352.926C633.502,352.194 633.361,351.226 633.64,350.773C633.92,350.321 633.854,348.612 633.495,346.976C632.905,344.292 632.456,344 628.921,344L625,344L625,349C625,352.778 624.633,354 623.5,354C622.367,354 622,352.778 622,349L622,344L614,344L614,349.583C614,356.927 611.631,356.578 611.198,349.171L610.896,344L603,344L603,349C603,352.778 602.633,354 601.5,354C600.367,354 600,352.778 600,349L600,344L592.104,344L591.802,349.25C591.636,352.138 591.05,354.5 590.5,354.5C589.95,354.5 589.364,352.138 589.198,349.25L588.896,344L581.072,344L580.786,353.75C580.555,361.623 580.211,363.5 579,363.5C577.789,363.5 577.445,361.623 577.214,353.75L576.928,344L569,344L569,349C569,352.778 568.633,354 567.5,354C566.367,354 566,352.778 566,349L566,344L558,344L558,349C558,352.778 557.633,354 556.5,354C555.367,354 555,352.778 555,349L555,344L547,344L547,349C547,352.778 546.633,354 545.5,354C544.367,354 544,352.778 544,349L544,344L536,344L536,349C536,352.778 535.633,354 534.5,354C533.367,354 533,352.778 533,349L533,344L525,344L525,349C525,353.333 524.733,354 523,354C521.267,354 521,353.333 521,349L521,344L512.88,344L513.006,352.75C513.173,364.336 513.218,364 511.5,364C510.267,364 510,362.222 510,354L510,344L502.105,344L501.802,349.25C501.636,352.138 501.05,354.5 500.5,354.5C499.95,354.5 499.364,352.138 499.198,349.25L498.895,344L491,344L491,349C491,352.778 490.633,354 489.5,354C488.367,354 488,352.778 488,349L488,344L480,344L480,349C480,352.778 479.633,354 478.5,354C477.367,354 477,352.778 477,349L477,344L468,344L468,349C468,352.778 467.633,354 466.5,354C465.367,354 465,352.778 465,349L465,344L457,344L457,349.583C457,356.927 454.631,356.578 454.198,349.171L453.895,344L446,344L446,354C446,362.222 445.733,364 444.5,364C443.267,364 443,362.222 443,354L443,344L435.105,344L434.802,349.171C434.369,356.578 432,356.927 432,349.583L432,344L424.105,344L423.802,349.25C423.58,353.116 423.104,354.5 422,354.5C420.896,354.5 420.42,353.116 420.198,349.25L419.895,344L412,344L412,349C412,352.778 411.633,354 410.5,354C409.367,354 409,352.778 409,349L409,344L401,344L401,349C401,352.778 400.633,354 399.5,354C398.367,354 398,352.778 398,349L398,344L390,344L390,349C390,352.778 389.633,354 388.5,354C387.367,354 387,352.778 387,349L387,344L379,344L379,353.573C379,362.152 378.818,363.112 377.25,362.812C375.76,362.527 375.457,361.107 375.212,353.239L374.925,344L371.462,344C368.04,344 368,344.05 368,348.378C368,352.493 366.138,355.805 364.658,354.325C364.296,353.963 364,351.492 364,348.833L364,344L356,344L356,349C356,352.778 355.633,354 354.5,354C353.367,354 353,352.778 353,349L353,344L345.105,344L344.802,349.171C344.369,356.578 342,356.927 342,349.583L342,344L334,344L334,349C334,353.362 333.74,354 331.966,354C330.102,354 329.987,353.579 330.594,349L331.258,344L312,344L312,346.96C312,349.551 312.503,350.07 316.037,351.129C318.428,351.846 321.485,353.901 323.537,356.172C326.484,359.435 327,360.728 327,364.853C327,371.723 322.805,377.413 316.353,379.294C313.125,380.236 311.57,381.258 311.356,382.58C310.689,386.69 311.504,387 322.969,387L334,387L334,382Z" style="fill:rgb(232,145,58);fill-rule:nonzero;stroke:rgb(232,145,58);stroke-width:0.4px;"/>
            </g>
            <g transform="matrix(-7.63607,0,0,7.63607,5776.29,-253.237)">
                <path d="M722.965,385.066C724.069,383.003 724.445,348.323 723.393,345.582C722.544,343.369 706.497,343.348 701.218,345.553C686.701,351.617 683.315,371.503 695.108,381.442C700.383,385.888 703.765,386.918 713.215,386.961C720.831,386.995 722.06,386.756 722.965,385.066Z" style="fill:rgb(212,207,199);fill-rule:nonzero;stroke:rgb(18,48,48);stroke-width:3.79px;"/>
            </g>
            <g transform="matrix(-7.63607,0,0,7.63607,5776.29,-253.237)">
                <path d="M698.748,372.476C695.805,369.532 695.066,366.686 696.154,362.485C696.996,359.237 701.388,356 704.954,356C708.302,356 712.492,358.591 713.805,361.472C715.405,364.983 715.313,366.662 713.335,370.01C710.126,375.443 702.932,376.659 698.748,372.476Z" style="fill:rgb(18,48,48);fill-rule:nonzero;"/>
            </g>
            <g transform="matrix(-7.63607,0,0,7.63607,5776.29,-253.237)">
                <path d="M708.504,367.996C711.177,365.042 709.185,361 705.057,361C700.607,361 698.543,365.4 701.571,368.429C703.709,370.566 706.326,370.403 708.504,367.996Z" style="fill:rgb(232,145,58);fill-rule:nonzero;"/>
            </g>
            <g transform="matrix(2.4235,0,0,2.4235,-2611.23,-1284.5)">
                <g transform="matrix(1,0,0,1,11.7005,0)">
                    <g transform="matrix(-3.65249,0,0,3.65249,3355.01,805.497)">
                        <rect x="356" y="266" width="10" height="41" style="fill:rgb(212,207,199);fill-rule:nonzero;stroke:rgb(212,207,199);stroke-width:0.46px;"/>
                    </g>
                    <g transform="matrix(-3.65249,0,0,3.65249,3355.01,805.497)">
                        <path d="M475,307L475,264.89L470.25,265.195L465.5,265.5L464.959,307L475,307Z" style="fill:rgb(212,207,199);fill-rule:nonzero;stroke:rgb(212,207,199);stroke-width:0.46px;"/>
                    </g>
                    <g transform="matrix(-3.65249,0,0,3.65249,3355.01,805.497)">
                        <rect x="370" y="287" width="91" height="6" style="fill:rgb(212,207,199);fill-rule:nonzero;stroke:rgb(212,207,199);stroke-width:0.46px;"/>
                    </g>
                    <g transform="matrix(-3.65249,0,0,3.65249,3355.01,805.497)">
                        <path d="M462.363,258.934C463.051,255.495 465.277,255.865 464.798,259.339C464.552,261.122 465.069,261.555 467.75,261.813C470.778,262.105 471,261.917 471,259.063C471,257.379 471.45,256 472,256C472.55,256 473,257.35 473,259C473,261.762 473.278,262 476.5,262C479.917,262 480,261.905 480,258L480,254L351,254L351,262L461.75,262L462.363,258.934Z" style="fill:rgb(212,207,199);fill-rule:nonzero;stroke:rgb(212,207,199);stroke-width:0.46px;"/>
                    </g>
                    <g transform="matrix(-3.65249,0,0,3.65249,3355.01,805.497)">
                        <path d="M487,250L487,238L344.226,238L344,244L344,250L487,250Z" style="fill:rgb(212,207,199);fill-rule:nonzero;stroke:rgb(212,207,199);stroke-width:0.46px;"/>
                    </g>
                </g>
                <g transform="matrix(-3.65249,0,0,3.65249,3740.15,0)">
                    <path d="M342.25,284.256C337.712,284.071 330.288,284.071 325.75,284.256C321.212,284.441 324.925,284.593 334,284.593C343.075,284.593 346.788,284.441 342.25,284.256Z" style="fill:none;fill-rule:nonzero;stroke:black;stroke-width:0.46px;"/>
                </g>
                <g transform="matrix(1,0,0,1,289.069,0)">
                    <g transform="matrix(-3.65249,0,0,3.65249,3740.15,0)">
                        <path d="M571.252,303C571.731,301.075 572.562,297.813 573.1,295.75L574.077,292L619.906,292L620.962,295.75C621.542,297.813 622.296,301.188 622.637,303.25L623.256,307L634.314,307L633.657,290.34C633.296,281.177 633,269.027 633,263.34L633,253L561,253L560.995,270.25C560.992,279.737 560.697,291.913 560.34,297.308L559.691,307.115L565.036,306.808C570.227,306.509 570.407,306.398 571.252,303Z" style="fill:rgb(212,207,199);fill-rule:nonzero;stroke:rgb(212,207,199);stroke-width:0.46px;"/>
                    </g>
                    <g transform="matrix(-3.65249,0,0,3.65249,3740.15,0)">
                        <rect x="551" y="256" width="6" height="18" style="fill:rgb(212,207,199);fill-rule:nonzero;stroke:rgb(212,207,199);stroke-width:0.46px;"/>
                    </g>
                    <g transform="matrix(-3.65249,0,0,3.65249,3740.15,0)">
                        <path d="M662,248.967L662,243L532,243L532,248.93L542.25,249.215C547.888,249.372 577.138,249.38 607.25,249.233L662,248.967Z" style="fill:rgb(212,207,199);fill-rule:nonzero;stroke:rgb(212,207,199);stroke-width:0.46px;"/>
                    </g>
                    <g transform="matrix(-3.65249,0,0,3.65249,3740.15,0)">
                        <path d="M566.136,217.5C567.621,205.95 569.106,194.8 569.435,192.722L570.033,188.943L556.297,189.222L542.561,189.5L541.717,194C540.859,198.57 533.517,232.092 532.387,236.593L531.77,239.052L547.603,238.776L563.436,238.5L566.136,217.5Z" style="fill:rgb(212,207,199);fill-rule:nonzero;stroke:rgb(212,207,199);stroke-width:0.46px;"/>
                    </g>
                    <g transform="matrix(-3.65249,0,0,3.65249,3740.15,0)">
                        <path d="M626.32,235.25C626.05,233.188 624.626,222.05 623.154,210.5L620.478,189.5L612.239,189.21L604,188.919L604,206.46C604,227.499 603.772,228 594.191,228C584.722,228 584.652,227.86 585.649,210.949C586.499,196.535 586.503,196.518 589.25,195.205C591.142,194.301 592,193.128 592,191.445C592,189.033 591.879,189 583.019,189C574.507,189 574.014,189.117 573.583,191.25C572.704,195.601 567.996,233.532 567.998,236.25L568,239L626.81,239L626.32,235.25Z" style="fill:rgb(212,207,199);fill-rule:nonzero;stroke:rgb(212,207,199);stroke-width:0.46px;"/>
                    </g>
                    <g transform="matrix(-3.65249,0,0,3.65249,3740.15,0)">
                        <path d="M662,238.489C662,238.209 661.059,233.821 659.91,228.739C658.76,223.658 656.321,212.823 654.489,204.663C652.658,196.502 650.96,189.626 650.716,189.383C650.473,189.139 644.461,189.066 637.356,189.22L624.439,189.5L627.68,214C629.463,227.475 630.939,238.613 630.961,238.75C631.039,239.247 662,238.987 662,238.489Z" style="fill:rgb(212,207,199);fill-rule:nonzero;stroke:rgb(212,207,199);stroke-width:0.46px;"/>
                    </g>
                    <g transform="matrix(-3.65249,0,0,3.65249,3740.15,0)">
                        <path d="M599.332,200.02C599.486,180.283 599.358,178.512 597.75,178.197C596.126,177.878 596,179.444 596,200C596,219.666 596.177,222.11 597.582,221.823C598.959,221.542 599.186,218.719 599.332,200.02Z" style="fill:rgb(232,145,58);fill-rule:nonzero;stroke:rgb(232,145,58);stroke-width:0.46px;"/>
                    </g>
                    <g transform="matrix(-3.65249,0,0,3.65249,3740.15,0)">
                        <path d="M605.497,284.989C605.146,283.883 603.553,282.303 601.959,281.479C600.364,280.654 598.614,279.148 598.071,278.132C597.367,276.818 595.435,276.091 591.37,275.614C581.759,274.484 572,269.077 572,264.882C572,263.909 572.961,262.441 574.134,261.618C576.088,260.25 576.727,260.368 581.671,263.006C584.641,264.591 588.997,266.177 591.35,266.53C595.307,267.123 595.898,266.902 599.214,263.586C602.019,260.781 603.595,260 606.45,260C616.402,260 622.077,269.441 617.065,277.661C616.005,279.399 614.181,281.125 613.012,281.496C611.842,281.867 610.472,283.258 609.967,284.586C608.852,287.519 606.371,287.743 605.497,284.989Z" style="fill:rgb(18,48,48);fill-rule:nonzero;"/>
                    </g>
                    <g transform="matrix(-3.65249,0,0,3.65249,3740.15,0)">
                        <path d="M605.819,273.952C605.755,269.367 606.253,268.499 608.457,269.345C609.495,269.743 610,271.258 610,273.969C610,278.487 611.13,279.08 613.443,275.777C616.873,270.881 613.468,264 607.616,264C601.276,264 597.902,270.559 601.557,275.777C604.069,279.364 605.883,278.587 605.819,273.952Z" style="fill:rgb(212,207,199);fill-rule:nonzero;stroke:rgb(212,207,199);stroke-width:0.46px;"/>
                    </g>
                </g>
                <path d="M1286.6,810.361L1286.6,1149.86" style="fill:none;stroke:rgb(212,207,199);stroke-width:4.2px;stroke-linecap:round;stroke-linejoin:round;stroke-miterlimit:1.5;"/>
                <g transform="matrix(1.11413e-16,1.81951,-1.81951,1.11413e-16,3390.75,-1748.77)">
                    <path d="M1286.6,714.281L1286.6,982.045" style="fill:none;stroke:rgb(212,207,199);stroke-width:2.31px;stroke-linecap:round;stroke-linejoin:round;stroke-miterlimit:1.5;"/>
                </g>
                <g transform="matrix(6.21236e-17,1.81951,-1.01456,1.11413e-16,3028.9,-1602.16)">
                    <path d="M1286.6,674.857L1286.6,937.644" style="fill:none;stroke:rgb(212,207,199);stroke-width:2.85px;stroke-linecap:round;stroke-linejoin:round;stroke-miterlimit:1.5;"/>
                </g>
                <g transform="matrix(6.21236e-17,1.81951,-1.01456,1.11413e-16,2310.93,-1602.16)">
                    <path d="M1286.6,674.857L1286.6,937.644" style="fill:none;stroke:rgb(212,207,199);stroke-width:2.85px;stroke-linecap:round;stroke-linejoin:round;stroke-miterlimit:1.5;"/>
                </g>
                <g transform="matrix(7.39778e-18,1.81951,-0.120815,1.11413e-16,2621.49,-1303.3)">
                    <path d="M1286.6,449.534L1286.6,5143.76" style="fill:none;stroke:rgb(212,207,199);stroke-width:3.25px;stroke-linecap:round;stroke-linejoin:round;stroke-miterlimit:1.5;"/>
                </g>
                <g transform="matrix(1.11413e-17,1.81951,-0.181951,1.11413e-16,1385.87,-1452.17)">
                    <path d="M1286.6,-1143.94L1286.6,869.682" style="fill:none;stroke:rgb(212,207,199);stroke-width:3.24px;stroke-linecap:round;stroke-linejoin:round;stroke-miterlimit:1.5;"/>
                </g>
                <g transform="matrix(1.11413e-17,1.81951,-0.181951,1.11413e-16,2273.02,-1452.17)">
                    <path d="M1286.6,-1103.98L1286.6,969.587" style="fill:none;stroke:rgb(212,207,199);stroke-width:3.24px;stroke-linecap:round;stroke-linejoin:round;stroke-miterlimit:1.5;"/>
                </g>
                <g transform="matrix(1.88956e-17,1.81951,-0.308588,1.11413e-16,1540.92,-1303.3)">
                    <path d="M1286.6,-484.124L1286.6,1224.31" style="fill:none;stroke:rgb(212,207,199);stroke-width:3.21px;stroke-linecap:round;stroke-linejoin:round;stroke-miterlimit:1.5;"/>
                </g>
                <g transform="matrix(0.291121,0,0,0.291121,1059.78,318.665)">
                    <path d="M1286.6,1245.65L1286.6,2857.12" style="fill:none;stroke:rgb(212,207,199);stroke-width:14.41px;stroke-linecap:round;stroke-linejoin:round;stroke-miterlimit:1.5;"/>
                </g>
                <g transform="matrix(0.291121,0,0,0.291121,1208.65,318.665)">
                    <path d="M1286.6,980.276L1286.6,2854" style="fill:none;stroke:rgb(212,207,199);stroke-width:14.41px;stroke-linecap:round;stroke-linejoin:round;stroke-miterlimit:1.5;"/>
                </g>
                <g transform="matrix(0.291121,0,0,0.291121,1355.26,318.665)">
                    <path d="M1286.6,821.054L1286.6,1224.31" style="fill:none;stroke:rgb(212,207,199);stroke-width:14.41px;stroke-linecap:round;stroke-linejoin:round;stroke-miterlimit:1.5;"/>
                </g>
                <g transform="matrix(0.291121,0,0,0.515284,1645.09,217.896)">
                    <path d="M1286.6,675.307L1286.6,883.891" style="fill:none;stroke:rgb(212,207,199);stroke-width:10.02px;stroke-linecap:round;stroke-linejoin:round;stroke-miterlimit:1.5;"/>
                </g>
                <g transform="matrix(0.291121,0,0,0.515284,1786.07,217.896)">
                    <path d="M1286.6,774.082L1286.6,1802.86" style="fill:none;stroke:rgb(212,207,199);stroke-width:10.02px;stroke-linecap:round;stroke-linejoin:round;stroke-miterlimit:1.5;"/>
                </g>
                <g transform="matrix(0.291121,0,0,0.515284,1933.8,217.896)">
                    <path d="M1286.6,956.641L1286.6,1802.86" style="fill:none;stroke:rgb(212,207,199);stroke-width:10.02px;stroke-linecap:round;stroke-linejoin:round;stroke-miterlimit:1.5;"/>
                </g>
                <g transform="matrix(1,0,0,1,583.058,0)">
                    <path d="M1286.6,548.602L1286.6,670.877" style="fill:none;stroke:rgb(212,207,199);stroke-width:4.2px;stroke-linecap:round;stroke-linejoin:round;stroke-miterlimit:1.5;"/>
                </g>
            </g>
            <g transform="matrix(-3.65249,0,0,3.65249,3740.15,0)">
                <path d="M465.518,823.058C464.391,819.506 465.85,816.845 468.735,817.192C472.067,817.592 473.89,820.361 472.394,822.75C470.739,825.393 466.322,825.591 465.518,823.058Z" style="fill:rgb(18,48,48);fill-rule:nonzero;stroke:rgb(18,48,48);stroke-width:0.46px;"/>
            </g>
            <g transform="matrix(-3.65249,0,0,3.65249,3740.15,0)">
                <path d="M552.25,824.356C550.828,823.761 550.612,820.161 551.878,818.163C553.005,816.385 557.017,817.055 558.393,819.25C560.445,822.523 556.234,826.023 552.25,824.356Z" style="fill:rgb(18,48,48);fill-rule:nonzero;stroke:rgb(18,48,48);stroke-width:0.46px;"/>
            </g>
        </g>
    </g>
    <g transform="matrix(5.27575,0,0,5.27575,-4886.27,-4001.76)">
        <g transform="matrix(50,0,0,50,1292.51,974.819)">
        </g>
        <text x="947.949px" y="974.819px" style="font-family:'Oswald-Bold', 'Oswald';font-weight:700;font-size:50px;fill:rgb(232,145,58);">MY SHOP LA<tspan x="1185.47px 1209.89px " y="974.819px 974.819px ">YO</tspan>UT</text>
    </g>
</svg>
