<?xml version="1.0" encoding="UTF-8" standalone="no"?>
<!DOCTYPE svg PUBLIC "-//W3C//DTD SVG 1.1//EN" "http://www.w3.org/Graphics/SVG/1.1/DTD/svg11.dtd">
<svg width="100%" height="100%" viewBox="0 0 2048 2048" version="1.1" xmlns="http://www.w3.org/2000/svg" xmlns:xlink="http://www.w3.org/1999/xlink" xml:space="preserve" xmlns:serif="http://www.serif.com/" style="fill-rule:evenodd;clip-rule:evenodd;stroke-linecap:round;stroke-linejoin:round;stroke-miterlimit:1.5;">
    <g transform="matrix(1.0419,0,0,1.04602,-46.3839,-4.37138)">
        <circle cx="1063.23" cy="987.555" r="892.559" style="fill:rgb(18,48,48);stroke:rgb(45,106,106);stroke-width:6.93px;"/>
    </g>
    <g transform="matrix(1.70462,0,0,1.70462,1042.54,1028.51)">
        <g transform="matrix(1,0,0,1,-563.002,-562.5)">
            <clipPath id="_clip1">
                <rect x="0" y="0" width="1126" height="1125"/>
            </clipPath>
            <g clip-path="url(#_clip1)">
                <g transform="matrix(-2.38654,0,0,2.4288,2100.39,-318.916)">
                    <path d="M621,586.405C597.136,583.605 580.971,580.287 565,574.911C524.212,561.181 490.238,538.269 462.393,505.712C431.215,469.258 414.327,429.183 409.417,380C408.023,366.037 407.949,361.307 408.937,349.236C411.587,316.872 418.496,291.012 431.612,264.372C450.443,226.122 480.618,193.491 518.26,170.672C542.951,155.703 567.934,146.318 599,140.34C618.781,136.534 650.516,135.887 671.038,138.873C722.99,146.431 766.75,167.551 802.871,202.498C816.786,215.962 824.75,225.412 834.632,240.184C853.905,268.996 865.941,302.203 870.049,337.898C871.834,353.41 870.785,385.493 868.019,399.953C858.916,447.555 839.176,484.87 805.026,519.031C769.36,554.708 728.738,575.446 677.555,584.105C665.983,586.063 630.413,587.51 621,586.405Z" style="fill:none;fill-rule:nonzero;stroke:black;stroke-width:0.7px;stroke-linecap:butt;stroke-linejoin:miter;stroke-miterlimit:4;"/>
                </g>
                <g transform="matrix(-2.38654,0,0,2.4288,2100.39,-318.916)">
                    <path d="M799.647,368.015L795.97,385.138L791.54,408.105C793.531,408.434 784.561,414.983 785.858,414.989C787.917,414.999 788.136,415.349 787.58,417.75C787.229,419.263 784.048,426.35 780.51,433.5C773.735,447.19 763.773,461.49 754.235,471.216L745.696,479.403C745.696,479.403 757.38,492.93 765.507,502.19C766.337,503.136 770.628,500.424 774.505,498.639L779.5,496.34L773.712,494.17C770.529,492.976 767.536,492 767.06,492C766.186,492 763.981,486.63 764.022,484.601C764.034,483.995 764.841,482.464 765.815,481.199C767.477,479.039 767.862,478.971 772.053,480.092C776.076,481.168 776.964,481.062 781.009,479.029C786.833,476.101 804,464.82 804,463.92C804,463.539 801.862,462.919 799.25,462.542C791.367,461.404 790.427,460.993 788.583,457.872C787.087,455.338 787,454.414 788.027,451.936C789.155,449.211 789.623,449 794.538,449C799.759,449 799.948,448.893 807.91,441.403C816.102,433.697 822.594,426.26 821.812,425.479C821.576,425.243 818.53,425.509 815.044,426.07C808.869,427.065 808.631,427.02 805.852,424.359C802.934,421.563 802.276,419.566 803.933,418.541C804.446,418.224 813.237,419.607 823.469,421.613C833.7,423.62 818.418,401.853 818.691,401.581C819.396,400.876 820.074,398.426 821.468,390.187C824.834,370.29 829.207,362.672 825.431,343.277L828.856,329.685L827.108,322.038L821.751,314.936L822.432,309.798C822.982,305.656 822.861,304.851 821.807,305.645C821.088,306.186 818.547,308.132 816.161,309.969C812.251,312.979 811.463,313.22 808.194,312.405C805.287,311.68 804.383,310.858 803.645,308.274C802.814,305.361 803.077,304.657 806.362,301.021C808.363,298.806 810,296.344 810,295.548C810,293.415 807.085,270.885 806.457,268.162C806.005,266.201 805.673,266.027 804.401,267.082C803.567,267.774 801.743,270.289 800.347,272.67C797.99,276.693 797.51,277 793.586,277C789.811,277 789.201,276.658 787.837,273.777C786.375,270.69 786.425,270.396 789.041,266.785L791.772,263.015L789.494,255.258C787.237,247.566 782.646,234.854 781.395,232.831C781.038,232.252 779.552,234.641 778.093,238.139C775.728,243.81 775.017,244.639 771.536,245.785C767.784,247.019 767.545,246.962 765.45,244.335C763.455,241.833 763.386,241.321 764.635,238.332C765.386,236.535 766,234.346 766,233.469C766,231.591 751.008,205 749.95,205C749.552,205 748.913,207.096 748.529,209.659C747.485,216.617 746.403,218.74 743.008,220.496C740.105,221.997 739.763,221.967 736.964,219.974C734.807,218.438 734.125,217.266 734.467,215.681C735.717,209.89 735.418,209.033 729.808,202.315C726.678,198.567 721.592,193.025 718.507,190L712.897,184.5L713.104,191.879C713.293,198.617 713.102,199.418 710.905,201.106C705.919,204.94 701.413,202.938 700.442,196.458C699.809,192.237 699.196,191.482 691.631,185.586C683.115,178.95 673.88,172.786 673.309,173.357C673.125,173.542 673.733,176.584 674.66,180.118C676.26,186.22 676.255,186.681 674.557,189.272C673.069,191.544 672.05,192 668.464,192C664.416,192 664.117,191.806 663.464,188.75C663.082,186.962 662.283,184.898 661.689,184.162C659.073,180.921 633.818,169.849 632.362,171.305C632.054,171.613 633.033,174.127 634.538,176.893C636.59,180.663 637.136,182.776 636.72,185.338L636.165,188.756L644.248,189.461C664.019,191.186 680.393,198.562 693.5,211.648C695.15,213.295 700.886,216.719 706.248,219.257C743.424,236.855 777.538,274.199 791.961,312.147M493.003,304.218C507.564,266.792 539.481,233.624 576.364,217.59C581.048,215.554 585.975,212.396 589.517,209.158C592.633,206.311 598.194,202.192 601.876,200.004C608.483,196.079 621.626,191 625.175,191C627.454,191 627.448,190.873 624.963,186.663C623.05,183.42 622.277,183.055 612.213,180.645C600.551,177.852 591,176.426 591,177.477C591,177.842 592.83,180.311 595.066,182.963C598.649,187.212 599.054,188.197 598.479,191.26C597.915,194.269 597.274,194.901 593.701,195.971C589.648,197.186 589.521,197.148 586.575,193.854L583.574,190.5L571.267,190.643C564.498,190.721 557.35,191.087 555.382,191.456C551.897,192.11 551.851,192.178 553.587,194.096C554.567,195.179 556.861,196.987 558.684,198.114C561.498,199.853 562,200.739 562,203.967C562,206.906 561.44,208.137 559.535,209.385C556.366,211.462 555.062,211.395 552,209C550.625,207.924 548.334,207.034 546.91,207.022C543.401,206.992 530.946,210.262 523,213.299L516.5,215.784L523.154,218.941C531.507,222.905 532.735,225.727 528.116,230.346L525.109,233.353L520.979,231.491L516.85,229.629L508.175,233.889C498.157,238.81 489,244.14 489,245.052C489,245.398 491.57,246.297 494.71,247.05C500.365,248.407 504.003,250.836 503.996,253.25C503.994,253.938 503.092,255.978 501.99,257.784C500.049,260.968 499.839,261.048 495.038,260.411L490.088,259.754L482.294,266.288C478.007,269.882 472.721,274.663 470.547,276.911L466.594,281L473.682,281C480.277,281 480.893,281.188 482.537,283.697C484.234,286.287 484.229,286.536 482.402,289.947C480.756,293.021 479.903,293.567 476.068,294C471.806,294.481 471.344,294.882 463.996,304.5L456.356,314.5L444.948,315L456.86,324.775L459.815,334.503C456.137,355.785 453.218,350.001 455.573,367.859C457.685,383.874 479.474,384.082 456.1,409.997C455.743,410.392 456.902,411.054 463.812,409.679C470.723,408.304 464.35,420 464.581,420C464.811,420 465.011,425.063 465.024,431.25L465.049,442.5L469.614,437.25C473.376,432.925 474.754,432 477.438,432C480.262,432 480.932,432.524 482.468,435.928C484.209,439.791 484.202,439.908 481.999,443.002C480.027,445.771 479.841,446.889 480.445,452.324C481.226,459.352 484.688,475.621 485.841,477.68C486.368,478.622 487.522,477.138 489.528,472.94C493.755,464.099 497.937,462.55 502.353,468.192C504.819,471.343 504.829,471.427 503.092,474.811C501.476,477.962 501.455,478.674 502.832,483.62C503.655,486.579 504.635,489 505.01,489C505.384,489 509.61,484.685 514.401,479.411L523.111,469.821L519.556,465.661C517.6,463.372 513.576,458.125 510.614,454C501.601,441.449 489.794,417.703 491.704,415.97C492.142,415.573 485.636,401.594 488.444,401.242L481.889,374.688L481.517,349.013" style="fill:rgb(212,207,199);fill-rule:nonzero;"/>
                </g>
                <path d="M572.94,207.045C584.38,207.045 595.695,207.586 606.861,208.643C787.522,225.746 929.058,378.056 929.058,563.163C929.058,759.709 769.487,919.28 572.94,919.28C376.394,919.28 216.823,759.709 216.823,563.163C216.823,379.407 356.3,227.971 535.071,209.039C547.515,207.721 560.149,207.045 572.94,207.045" style="fill:none;stroke:rgb(212,207,199);stroke-width:13.1px;"/>
                <g transform="matrix(1.53581,0,0,1.53581,-306.989,-301.75)">
                    <circle cx="572.94" cy="563.163" r="356.118" style="fill:none;stroke:rgb(212,207,199);stroke-width:8.53px;"/>
                </g>
            </g>
        </g>
    </g>
    <path d="M918.44,392.924L1226.18,403.959L1291.16,487.33L868.172,471.391L918.44,392.924Z" style="fill:rgb(18,48,48);stroke:rgb(18,48,48);stroke-width:12.92px;"/>
    <g transform="matrix(1,0,0,1,0,4)">
        <path d="M235.655,1286.71C235.655,1286.71 939.524,1051.31 1881,1284.26C1881,1284.26 1961.8,1097.9 1898.05,830.622L1238.44,828.17L1052.08,1043.95L876.755,829.396L218.37,830.622C218.37,830.622 159.52,1047.63 236.76,1284.26" style="fill:rgb(232,145,58);stroke:rgb(18,48,48);stroke-width:19.7px;"/>
    </g>
    <g transform="matrix(1.70149,0,0,2.35009,78.7057,-251.149)">
        <g transform="matrix(2.95219,0,0,2.95219,-1492.73,-1106.5)">
            <g transform="matrix(50,0,0,50,541.138,587.014)">
                <path d="M0.132,-0.016L0.01,-0.879L0.162,-0.88L0.216,-0.315L0.292,-0.88L0.422,-0.881L0.496,-0.341L0.553,-0.881L0.705,-0.882L0.582,-0.071L0.43,-0.053L0.356,-0.591L0.284,-0.035L0.132,-0.016Z" style="fill:rgb(18,48,48);fill-rule:nonzero;stroke:rgb(18,48,48);stroke-width:0.02px;stroke-linecap:butt;stroke-miterlimit:2;"/>
            </g>
            <g transform="matrix(50,0,0,50,576.807,587.014)">
                <path d="M0.041,-0.35L0.041,-0.616C0.041,-0.782 0.125,-0.897 0.298,-0.898C0.462,-0.898 0.555,-0.797 0.555,-0.634L0.555,-0.388L0.547,-0.305L0.521,-0.231L0.473,-0.169L0.399,-0.125L0.298,-0.094L0.197,-0.105L0.124,-0.136L0.076,-0.19L0.049,-0.263L0.041,-0.35ZM0.377,-0.339L0.377,-0.667C0.377,-0.719 0.365,-0.779 0.298,-0.778L0.257,-0.767L0.233,-0.738L0.222,-0.701L0.219,-0.662L0.219,-0.328C0.219,-0.276 0.23,-0.215 0.298,-0.22C0.364,-0.226 0.377,-0.285 0.377,-0.339Z" style="fill:rgb(18,48,48);fill-rule:nonzero;stroke:rgb(18,48,48);stroke-width:0.02px;stroke-linecap:butt;stroke-miterlimit:2;"/>
            </g>
            <g transform="matrix(50,0,0,50,606.617,587.014)">
                <path d="M0.041,-0.389L0.041,-0.637C0.041,-0.8 0.134,-0.898 0.298,-0.898C0.455,-0.898 0.555,-0.81 0.555,-0.65L0.555,-0.419L0.547,-0.341L0.521,-0.272L0.473,-0.214L0.399,-0.174L0.298,-0.144L0.197,-0.158L0.124,-0.188L0.076,-0.24L0.049,-0.308L0.041,-0.389ZM0.377,-0.375L0.377,-0.682C0.377,-0.735 0.362,-0.787 0.298,-0.786L0.257,-0.776L0.233,-0.749L0.222,-0.715L0.219,-0.679L0.219,-0.366C0.219,-0.314 0.233,-0.261 0.298,-0.265C0.361,-0.269 0.377,-0.32 0.377,-0.375Z" style="fill:rgb(18,48,48);fill-rule:nonzero;stroke:rgb(18,48,48);stroke-width:0.02px;stroke-linecap:butt;stroke-miterlimit:2;"/>
            </g>
            <g transform="matrix(50,0,0,50,636.426,587.014)">
                <path d="M0.052,-0.191L0.052,-0.885L0.236,-0.885L0.381,-0.873L0.47,-0.834L0.515,-0.767L0.527,-0.668L0.527,-0.448L0.524,-0.386L0.513,-0.333L0.491,-0.289L0.456,-0.255L0.403,-0.228L0.33,-0.211L0.234,-0.201L0.052,-0.191ZM0.237,-0.298L0.277,-0.3L0.306,-0.304L0.328,-0.312L0.34,-0.324L0.348,-0.342L0.35,-0.368L0.35,-0.733L0.324,-0.778L0.237,-0.788L0.237,-0.298Z" style="fill:rgb(18,48,48);fill-rule:nonzero;stroke:rgb(18,48,48);stroke-width:0.02px;stroke-linecap:butt;stroke-miterlimit:2;"/>
            </g>
            <g transform="matrix(50,0,0,50,664.136,587.014)">
                <path d="M0.132,-0.22L0.01,-0.886L0.162,-0.886L0.216,-0.447L0.292,-0.886L0.422,-0.886L0.496,-0.454L0.553,-0.886L0.705,-0.886L0.582,-0.23L0.43,-0.228L0.356,-0.658L0.284,-0.225L0.132,-0.22Z" style="fill:rgb(18,48,48);fill-rule:nonzero;stroke:rgb(18,48,48);stroke-width:0.02px;stroke-linecap:butt;stroke-miterlimit:2;"/>
            </g>
            <g transform="matrix(50,0,0,50,699.805,587.014)">
                <path d="M0.041,-0.447L0.041,-0.667C0.041,-0.825 0.149,-0.899 0.298,-0.899C0.448,-0.899 0.555,-0.824 0.555,-0.666L0.555,-0.448L0.547,-0.375L0.521,-0.312L0.473,-0.262L0.399,-0.23L0.298,-0.205L0.197,-0.231L0.124,-0.263L0.076,-0.313L0.049,-0.375L0.041,-0.447ZM0.377,-0.417L0.377,-0.7C0.377,-0.754 0.359,-0.797 0.298,-0.797L0.257,-0.788L0.233,-0.764L0.222,-0.733L0.219,-0.7L0.219,-0.417C0.219,-0.364 0.237,-0.321 0.298,-0.321C0.359,-0.32 0.377,-0.363 0.377,-0.417Z" style="fill:rgb(18,48,48);fill-rule:nonzero;stroke:rgb(18,48,48);stroke-width:0.02px;stroke-linecap:butt;stroke-miterlimit:2;"/>
            </g>
            <g transform="matrix(50,0,0,50,729.615,587.014)">
                <path d="M0.23,-0.609L0.281,-0.609L0.316,-0.618L0.337,-0.645L0.346,-0.674L0.349,-0.699L0.347,-0.724L0.339,-0.752L0.321,-0.777L0.289,-0.787L0.23,-0.787L0.23,-0.609ZM0.052,-0.226L0.052,-0.886L0.246,-0.886L0.362,-0.876L0.449,-0.846L0.506,-0.791L0.526,-0.708L0.524,-0.67L0.515,-0.632L0.496,-0.595L0.46,-0.564L0.406,-0.539L0.544,-0.208L0.36,-0.216L0.259,-0.527L0.23,-0.527L0.23,-0.221L0.052,-0.226Z" style="fill:rgb(18,48,48);fill-rule:nonzero;stroke:rgb(18,48,48);stroke-width:0.02px;stroke-linecap:butt;stroke-miterlimit:2;"/>
            </g>
            <g transform="matrix(50,0,0,50,757.007,587.014)">
                <path d="M0.052,-0.206L0.052,-0.886L0.23,-0.885L0.23,-0.624L0.368,-0.885L0.566,-0.885L0.387,-0.599L0.58,-0.172L0.395,-0.185L0.262,-0.51L0.23,-0.446L0.23,-0.196L0.052,-0.206Z" style="fill:rgb(18,48,48);fill-rule:nonzero;stroke:rgb(18,48,48);stroke-width:0.02px;stroke-linecap:butt;stroke-miterlimit:2;"/>
            </g>
            <g transform="matrix(50,0,0,50,785.059,587.014)">
                <path d="M0.052,-0.169L0.052,-0.884L0.419,-0.883L0.419,-0.78L0.23,-0.783L0.23,-0.584L0.364,-0.578L0.364,-0.473L0.23,-0.48L0.23,-0.255L0.419,-0.24L0.419,-0.136L0.052,-0.169Z" style="fill:rgb(18,48,48);fill-rule:nonzero;stroke:rgb(18,48,48);stroke-width:0.02px;stroke-linecap:butt;stroke-miterlimit:2;"/>
            </g>
            <g transform="matrix(50,0,0,50,806.568,587.014)">
                <path d="M0.23,-0.561L0.281,-0.559L0.316,-0.569L0.337,-0.599L0.346,-0.633L0.349,-0.663L0.347,-0.691L0.339,-0.725L0.321,-0.755L0.289,-0.767L0.23,-0.768L0.23,-0.561ZM0.052,-0.129L0.052,-0.883L0.246,-0.882L0.362,-0.871L0.449,-0.835L0.506,-0.769L0.526,-0.669L0.524,-0.624L0.515,-0.58L0.496,-0.536L0.46,-0.5L0.406,-0.472L0.544,-0.072L0.36,-0.095L0.259,-0.464L0.23,-0.466L0.23,-0.11L0.052,-0.129Z" style="fill:rgb(18,48,48);fill-rule:nonzero;stroke:rgb(18,48,48);stroke-width:0.02px;stroke-linecap:butt;stroke-miterlimit:2;"/>
            </g>
            <g transform="matrix(50,0,0,50,833.96,587.014)">
                <path d="M0.022,-0.301L0.202,-0.316L0.203,-0.271L0.208,-0.228L0.219,-0.189L0.24,-0.162L0.27,-0.148C0.311,-0.143 0.323,-0.171 0.323,-0.207C0.323,-0.281 0.269,-0.347 0.219,-0.394L0.164,-0.443L0.122,-0.48L0.085,-0.52L0.052,-0.567L0.031,-0.619L0.022,-0.684C0.022,-0.746 0.042,-0.799 0.09,-0.84C0.141,-0.883 0.205,-0.898 0.271,-0.897C0.333,-0.897 0.385,-0.876 0.429,-0.831C0.473,-0.787 0.495,-0.733 0.495,-0.67L0.494,-0.664L0.494,-0.649L0.311,-0.633L0.312,-0.667L0.31,-0.7L0.302,-0.732L0.284,-0.757L0.256,-0.767L0.212,-0.746L0.197,-0.695L0.206,-0.646L0.232,-0.602L0.264,-0.567L0.303,-0.532L0.337,-0.502L0.401,-0.436L0.45,-0.367L0.484,-0.285L0.496,-0.192C0.496,-0.135 0.477,-0.085 0.43,-0.051C0.384,-0.017 0.324,-0.007 0.27,-0.015L0.161,-0.054L0.085,-0.121L0.04,-0.206L0.022,-0.301Z" style="fill:rgb(18,48,48);fill-rule:nonzero;stroke:rgb(18,48,48);stroke-width:0.02px;stroke-linecap:butt;stroke-miterlimit:2;"/>
            </g>
        </g>
    </g>
    <g transform="matrix(1,0,0,1,19.6167,80.4594)">
        <g transform="matrix(0.826592,0.562802,-0.562802,0.826592,995.811,-2.47987)">
            <text x="501.93px" y="1614.73px" style="font-family:'Oswald-Bold', 'Oswald';font-weight:700;font-size:183.333px;fill:rgb(232,145,58);">N</text>
        </g>
        <g transform="matrix(0.891778,0.452472,-0.452472,0.891778,826.184,-90.9223)">
            <text x="603.164px" y="1681.67px" style="font-family:'Oswald-Bold', 'Oswald';font-weight:700;font-size:183.333px;fill:rgb(232,145,58);">E</text>
        </g>
        <g transform="matrix(0.938684,0.344778,-0.344778,0.938684,636.911,-131.652)">
            <text x="688.595px" y="1724.85px" style="font-family:'Oswald-Bold', 'Oswald';font-weight:700;font-size:183.333px;fill:rgb(232,145,58);">A</text>
        </g>
        <g transform="matrix(0.977177,0.212426,-0.212426,0.977177,392.926,-129.147)">
            <text x="797.485px" y="1764.02px" style="font-family:'Oswald-Bold', 'Oswald';font-weight:700;font-size:183.333px;fill:rgb(232,145,58);">R</text>
        </g>
        <g transform="matrix(0.999983,0.00587579,-0.00587579,0.999983,10.5656,-5.6546)">
            <text x="967.631px" y="1795.31px" style="font-family:'Oswald-Bold', 'Oswald';font-weight:700;font-size:183.333px;fill:rgb(232,145,58);">M</text>
        </g>
        <g transform="matrix(0.991026,-0.133672,0.133672,0.991026,-229.742,165.102)">
            <text x="1114.71px" y="1793.54px" style="font-family:'Oswald-Bold', 'Oswald';font-weight:700;font-size:183.333px;fill:rgb(232,145,58);">E</text>
        </g>
        <g transform="matrix(0.958901,-0.283742,0.283742,0.958901,-449.14,431.897)">
            <text x="1266.3px" y="1766.34px" style="font-family:'Oswald-Bold', 'Oswald';font-weight:700;font-size:183.333px;fill:rgb(232,145,58);">.</text>
        </g>
        <g transform="matrix(0.922114,-0.386919,0.386919,0.922114,-573.195,650.117)">
            <text x="1328.21px" y="1748.8px" style="font-family:'Oswald-Bold', 'Oswald';font-weight:700;font-size:183.333px;fill:rgb(232,145,58);">O</text>
        </g>
        <g transform="matrix(0.857616,-0.514291,0.514291,0.857616,-668.599,984.019)">
            <text x="1442.84px" y="1699.5px" style="font-family:'Oswald-Bold', 'Oswald';font-weight:700;font-size:183.333px;fill:rgb(232,145,58);">R</text>
        </g>
        <g transform="matrix(0.781459,-0.623956,0.623956,0.781459,-685.635,1320.72)">
            <text x="1542.58px" y="1639.14px" style="font-family:'Oswald-Bold', 'Oswald';font-weight:700;font-size:183.333px;fill:rgb(232,145,58);">G</text>
        </g>
    </g>
    <g transform="matrix(0.348951,0,0,0.348951,1057.04,652.167)">
        <g transform="matrix(1,0,0,1,-793.795,-1014.25)">
            <g transform="matrix(-3.02195,0,0,2.98738,1867.28,-30.5824)">
                <path d="M359.264,678.09C360.581,677.589 366.096,671.852 371.521,665.34C387.146,646.581 406.849,623.127 413.443,615.435C416.774,611.55 424.9,601.925 431.5,594.047C438.1,586.169 456.325,564.536 472,545.973C528.166,479.46 547.143,455.55 563.274,430.972C596.254,380.723 610,337.927 610,285.5C610,233.533 595.847,186.404 567.507,144C562.912,137.125 556.755,128.529 553.826,124.898C515.592,77.506 464.736,46.334 406.5,34.595C387.931,30.852 376.161,29.764 355,29.834C315.617,29.964 281.885,37.454 247.963,53.601L238.427,58.141L242.976,62.82C245.478,65.394 254.495,75.578 263.013,85.45C271.531,95.323 280.525,105.742 283,108.603C285.475,111.465 288.079,114.067 288.786,114.385C289.493,114.704 292.418,114.062 295.286,112.958C302.063,110.349 321.582,105.452 330.5,104.122C364.768,99.011 401.209,104.798 433.627,120.499C444.505,125.767 462.018,136.929 469,143.044C477.609,150.583 490.703,164.15 496.224,171.25C499.538,175.512 502.798,179 503.468,179C504.139,179 507.345,178.071 510.593,176.935C518.864,174.043 532.625,173.345 541.25,175.379C566.771,181.399 583.54,203.702 581.757,229.255C581.12,238.378 578.491,245.265 571.612,255.834C565.683,264.942 565.632,265.437 569.762,273.534C570.878,275.722 572.276,279.31 572.868,281.509C573.66,284.453 575.517,286.89 579.913,290.76C584.149,294.489 586.842,297.964 589.191,302.733C592.36,309.169 592.5,309.942 592.5,321.059C592.5,332.105 592.367,332.858 589.736,336.656C588.216,338.851 585.066,341.739 582.736,343.074C578.596,345.445 577.91,345.507 552.526,345.813C534.375,346.032 526.12,346.484 525.115,347.313C524.324,347.966 521.493,353.174 518.824,358.886C509.084,379.728 497.153,397.344 474,425.066C448.074,456.11 426.74,481.511 416.521,493.5C410.428,500.65 398.295,515.05 389.56,525.5C359.411,561.567 358.89,562.022 351.797,558.502C348.519,556.876 345.397,553.316 305,505.139C293.725,491.692 278.023,472.998 270.108,463.595C213.137,395.925 206.281,386.647 193.889,360.452C191.039,354.428 188.029,348.712 187.199,347.75C185.837,346.17 183.246,345.999 160.595,345.99C136.173,345.981 135.361,345.916 130.314,343.566C126.726,341.895 124.262,339.843 122.314,336.902C119.83,333.151 119.459,331.56 119.154,323.339C118.881,316.006 119.231,312.772 120.798,308.133C122.694,302.517 122.712,301.941 121.177,295.87C119.977,291.123 119.559,284.531 119.534,270C119.505,253.158 119.817,249.085 121.824,240.119C126.487,219.294 135.066,200.092 148.746,179.86C160.075,163.108 161.245,161.005 161.754,156.49C162.369,151.032 159.756,146.432 153.191,141.419L148.583,137.901L146.79,140.201C145.803,141.465 142.122,147.248 138.609,153.052C113.767,194.091 101.979,236.785 102.041,285.5C102.124,351.22 123.755,403.874 178.714,472.139C198.133,496.259 215.863,517.577 263.021,573.5C279.661,593.233 337.837,662.297 344.033,669.674C348.032,674.435 351.859,678.031 353.199,678.288C354.465,678.53 355.808,678.789 356.185,678.864C356.562,678.939 357.947,678.59 359.264,678.09Z" style="fill:rgb(232,145,58);fill-rule:nonzero;"/>
            </g>
            <g transform="matrix(-3.02195,0,0,2.98738,1867.28,-30.5824)">
                <path d="M364.48,471.713C374.565,466.001 375.948,451.183 367.091,443.73C353.079,431.94 333.29,447.089 340.417,464.148C344.173,473.136 355.615,476.734 364.48,471.713Z" style="fill:rgb(232,145,58);fill-rule:nonzero;"/>
            </g>
            <g transform="matrix(-3.02195,0,0,2.98738,1867.28,-30.5824)">
                <path d="M309.85,463.608C308.97,459.223 308.986,456.287 309.92,451.06C310.882,445.678 310.879,442.536 309.908,436.191C307.785,422.323 311.519,404.659 319.056,392.912C323.235,386.4 332.734,377.627 338.401,375.045C352.489,368.627 368.281,371.697 378.003,382.741C383.249,388.701 385.319,393.455 385.806,400.667C386.15,405.768 385.768,407.826 383.597,412.569C382.153,415.724 381.09,418.371 381.236,418.452C381.381,418.534 382.997,419.815 384.827,421.3C386.656,422.785 388.593,424 389.129,424C389.666,424 391.544,420.962 393.303,417.25C396.121,411.3 396.5,409.49 396.5,401.979C396.5,394.294 396.163,392.773 393.067,386.479C384.957,369.995 370.965,360.976 353.572,361.021C340.372,361.056 330.273,365.439 319.64,375.748C305.083,389.862 298.282,408.253 299.269,430.839C299.55,437.252 300.521,445.2 301.427,448.5C303.049,454.403 309.997,470.336 310.661,469.673C310.847,469.486 310.483,466.757 309.85,463.608Z" style="fill:rgb(232,145,58);fill-rule:nonzero;"/>
            </g>
            <g transform="matrix(-3.02195,0,0,2.98738,1867.28,-30.5824)">
                <path d="M405.99,455.25C410.243,446.22 418.438,425.529 421.056,417.212C423.743,408.676 424.688,392.773 423.063,383.432C421.65,375.304 415.573,361.765 410.062,354.466C403.62,345.934 403.738,346 395.015,346L387.173,346L393.609,352.18C405.162,363.273 411.276,374.918 413.234,389.557C414.878,401.838 411.787,415.99 403.183,435.587C400.432,441.85 400.192,443.113 401.117,446.46C401.692,448.542 402.238,452.89 402.331,456.12C402.424,459.351 402.57,461.996 402.656,461.997C402.741,461.999 404.242,458.962 405.99,455.25Z" style="fill:rgb(232,145,58);fill-rule:nonzero;"/>
            </g>
            <g transform="matrix(-3.02195,0,0,2.98738,1867.28,-30.5824)">
                <path d="M282.472,410.535C285.04,401.048 289.464,393.173 297.66,383.5C308.212,371.045 315.092,361.664 319.367,353.904C321.365,350.276 323,347.014 323,346.654C323,346.294 320.413,346.001 317.25,346.002L311.5,346.005L308.526,351.696C305.332,357.808 300.963,363.686 291.947,374C280.54,387.049 275.396,396.223 271.967,409.628C269.012,421.183 269.245,422.853 274.75,429.547L279.5,435.324L280.178,425.912C280.552,420.735 281.584,413.816 282.472,410.535Z" style="fill:rgb(232,145,58);fill-rule:nonzero;"/>
            </g>
            <g transform="matrix(-3.02195,0,0,2.98738,1867.28,-30.5824)">
                <path d="M446.782,417.934L452.774,410.868L453.441,402.684C454.622,388.177 451.314,368.394 445.217,353.5L442.352,346.5L436.676,346.2C433.554,346.035 431.003,346.26 431.006,346.7C431.01,347.14 431.702,348.822 432.544,350.437C435.402,355.919 439.892,369.839 441.449,378.047C443.753,390.19 443.199,414.303 440.411,423.25C439.502,426.164 440.53,425.307 446.782,417.934Z" style="fill:rgb(232,145,58);fill-rule:nonzero;"/>
            </g>
            <g transform="matrix(-3.02195,0,0,2.98738,1867.28,-30.5824)">
                <path d="M333.799,416.627C336.267,415.069 338.014,413.076 338.453,411.316C340.944,401.333 352.918,395.571 358.548,401.646C359.896,403.101 361,404.646 361,405.079C361,406.796 365.192,407.104 367.549,405.56C374.192,401.207 366.116,390.04 355.134,388.393C341.487,386.346 329.749,397.764 327.35,415.418C326.593,420.991 326.818,421.034 333.799,416.627Z" style="fill:rgb(232,145,58);fill-rule:nonzero;"/>
            </g>
            <g transform="matrix(-3.02195,0,0,2.98738,1867.28,-30.5824)">
                <path d="M253.992,388.699C255.913,379.441 259.925,373.203 271.121,362.066C276.963,356.255 282.527,350.263 283.486,348.75L285.23,346L272.931,346L262.883,355.75C251.92,366.387 247.102,373.67 244.551,383.465C242.422,391.641 242.464,391.859 247.239,397.431L251.464,402.361L252.23,397.931C252.651,395.494 253.444,391.34 253.992,388.699Z" style="fill:rgb(232,145,58);fill-rule:nonzero;"/>
            </g>
            <g transform="matrix(-3.02195,0,0,2.98738,1867.28,-30.5824)">
                <path d="M476.367,381.629L480.066,376.257L475.597,363.879C473.14,357.07 470.826,350.263 470.456,348.75C469.818,346.142 469.482,346 463.966,346L458.15,346L462.661,358.75C465.142,365.763 468.304,374.987 469.686,379.25C471.069,383.513 472.306,387 472.434,387C472.563,387 474.332,384.583 476.367,381.629Z" style="fill:rgb(232,145,58);fill-rule:nonzero;"/>
            </g>
            <g transform="matrix(-3.02195,0,0,2.98738,1867.28,-30.5824)">
                <path d="M231.955,366.3C231.98,365.64 233.8,360.95 236,355.878C238.2,350.805 240,346.508 240,346.328C240,346.147 237.519,346 234.487,346L228.975,346L226.459,351.688C222.431,360.797 222.418,361.442 226.138,367.582L229.5,373.131L230.705,370.316C231.368,368.767 231.93,366.96 231.955,366.3Z" style="fill:rgb(232,145,58);fill-rule:nonzero;"/>
            </g>
            <g transform="matrix(-3.02195,0,0,2.98738,1867.28,-30.5824)">
                <path d="M494.923,351.75L498.147,346L492.573,346C489.508,346 487,346.432 487,346.96C487,349.261 490.47,358.92 491.054,358.246C491.409,357.836 493.15,354.913 494.923,351.75Z" style="fill:rgb(232,145,58);fill-rule:nonzero;"/>
            </g>
            <g transform="matrix(-3.02195,0,0,2.98738,1867.28,-30.5824)">
                <path d="M572.825,321.091C573.496,314.062 568.073,305.182 561.41,302.398C559.593,301.639 552.795,300.563 546.303,300.007C530.415,298.648 526.928,298.144 517,295.775C505.343,292.992 494.086,288.742 484.073,283.343C474.231,278.035 473.635,277.626 456.538,264.456C425.962,240.901 413.948,235.373 391,234.296C372.56,233.432 358.887,236.491 343.536,244.916C339.594,247.079 327.366,254.893 316.365,262.28C289.827,280.097 275.579,286.852 253.848,291.919C240.266,295.086 223.983,296.734 179.349,299.461C162.233,300.507 154.008,301.413 151.112,302.572C143.819,305.49 139.02,313.092 139.006,321.752L139,325.005L355.75,324.752L572.5,324.5L572.825,321.091Z" style="fill:rgb(232,145,58);fill-rule:nonzero;"/>
            </g>
            <g transform="matrix(-3.02195,0,0,2.98738,1867.28,-30.5824)">
                <path d="M170,286.046C204.148,283.86 229.593,281.902 236.5,280.927C244.797,279.757 252.001,277.987 251.996,277.12C251.994,276.779 251.147,275.114 250.114,273.42C247.088,268.457 242.377,266.892 227.626,265.952C209.336,264.786 203.863,262.573 199.858,254.722C198.127,251.329 197.846,249.383 198.246,243.556C198.899,234.03 201.487,228.638 216.173,206.198C234.727,177.848 243,160.679 243,150.521C243,141.002 230.709,129.433 208.963,118.481C195.706,111.805 174.963,106 164.367,106C159.116,106 155,109.304 155,113.518C155,116.32 156.376,117.797 167.123,126.528C181.459,138.176 186.273,152.177 180.89,166.563C179.73,169.665 174.089,179.173 168.354,187.694C148.572,217.085 141.317,236.253 139.419,264.142C138.861,272.337 140.085,287.71 141.474,289.957C141.73,290.371 144.315,289.913 147.219,288.938C150.66,287.783 158.598,286.775 170,286.046Z" style="fill:rgb(232,145,58);fill-rule:nonzero;"/>
            </g>
            <g transform="matrix(-3.02195,0,0,2.98738,1867.28,-30.5824)">
                <path d="M551.999,284.75C551.999,284.063 550.719,280.796 549.156,277.491C547.592,274.186 545.993,269.775 545.601,267.688C544.557,262.123 547.21,254.293 552.637,246.921C559.281,237.896 561.294,232.803 561.294,225.022C561.294,213.601 554.836,203.577 543.795,197.864C537.359,194.534 524.409,194.088 516.853,196.937C496.336,204.673 490.283,228.193 504.376,245.42C512.5,255.352 514.474,264.911 510.307,274.138L508.212,278.775L510.616,279.871C512.869,280.897 528.835,284.373 535.5,285.288C542.774,286.287 552,285.986 551.999,284.75Z" style="fill:rgb(232,145,58);fill-rule:nonzero;"/>
            </g>
            <g transform="matrix(-3.02195,0,0,2.98738,1867.28,-30.5824)">
                <path d="M319.202,243.853C332.09,235.232 340.515,230.52 349.25,227.051C352.413,225.795 355,224.537 355,224.256C355,223.975 351.737,219.905 347.75,215.213C343.763,210.521 336.45,201.889 331.5,196.031C326.55,190.172 307.2,167.683 288.5,146.054C269.8,124.425 249.519,100.827 243.432,93.614C231.895,79.944 229.115,77.652 225.636,78.939C222.444,80.12 219.646,84.454 220.327,87.163C220.65,88.448 227.796,97.422 236.207,107.105C244.618,116.788 256.274,130.288 262.108,137.105C267.943,143.922 277.842,155.487 284.108,162.805C290.374,170.122 296.745,178.222 298.267,180.805C302.345,187.724 304.983,197.421 305.258,206.5L305.5,214.5L286.5,214.5L286.236,211.5C285.284,200.688 283.368,198 276.611,198C273.779,198 271.384,198.678 269.861,199.912C267.509,201.816 267.5,201.91 267.5,223.807C267.5,244.021 267.653,245.959 269.405,247.895C270.831,249.47 272.501,250 276.044,250C282.964,250 284.912,248.001 285.788,240L286.5,233.5L295.097,233.213C306.196,232.843 306.645,233.295 305.151,243.34C304.551,247.378 303.753,251.48 303.378,252.457C302.767,254.05 302.943,254.102 305.098,252.957C306.419,252.256 312.766,248.159 319.202,243.853Z" style="fill:rgb(232,145,58);fill-rule:nonzero;"/>
            </g>
            <g transform="matrix(-3.02195,0,0,2.98738,1867.28,-30.5824)">
                <path d="M407,221.677C407,221.499 403.063,218.017 398.25,213.94C376.892,195.845 358,177.056 358,173.91C358,173.41 358.876,172.124 359.946,171.054C361.424,169.576 362.736,169.245 365.4,169.677C368.376,170.16 369.369,169.785 371.954,167.2C375.236,163.918 375.587,162.028 373.705,157.783C372.099,154.162 358.438,139.238 354.569,136.879C350.367,134.316 343.047,134.389 339.694,137.026C335.438,140.374 335.412,142.499 339.554,148.513C342.944,153.435 343.171,154.174 342.093,156.776C341.442,158.347 338.012,162.078 334.472,165.067C330.931,168.055 328.026,170.835 328.017,171.245C328.008,171.656 334.195,179.081 341.766,187.745C349.338,196.41 358.883,207.456 362.978,212.29L370.422,221.081L380.961,220.493C386.758,220.17 394.425,220.32 398,220.826C406.303,222.002 407,222.067 407,221.677Z" style="fill:rgb(232,145,58);fill-rule:nonzero;"/>
            </g>
        </g>
    </g>
    <circle cx="681.439" cy="1303.52" r="28.407" style="fill:rgb(212,207,199);stroke:rgb(212,207,199);stroke-width:1px;"/>
    <g transform="matrix(1,0,0,1,132.77,184.026)">
        <circle cx="681.439" cy="1303.52" r="28.407" style="fill:rgb(212,207,199);stroke:rgb(212,207,199);stroke-width:1px;"/>
    </g>
    <g transform="matrix(1,0,0,1,260.6,-42.61)">
        <circle cx="681.439" cy="1303.52" r="28.407" style="fill:rgb(212,207,199);stroke:rgb(212,207,199);stroke-width:1px;"/>
    </g>
    <g transform="matrix(1,0,0,1,314.326,106.216)">
        <circle cx="681.439" cy="1303.52" r="28.407" style="fill:rgb(212,207,199);"/>
    </g>
    <g transform="matrix(1,0,0,1,423.012,233.429)">
        <circle cx="681.439" cy="1303.52" r="28.407" style="fill:rgb(212,207,199);stroke:rgb(212,207,199);stroke-width:1px;"/>
    </g>
    <g transform="matrix(1,0,0,1,518.73,-21.6137)">
        <circle cx="681.439" cy="1303.52" r="28.407" style="fill:rgb(212,207,199);stroke:rgb(212,207,199);stroke-width:1px;"/>
    </g>
    <g transform="matrix(1,0,0,1,737.955,-32.1118)">
        <circle cx="681.439" cy="1303.52" r="28.407" style="fill:rgb(212,207,199);"/>
    </g>
    <g transform="matrix(1,0,0,1,650.883,168.587)">
        <circle cx="681.439" cy="1303.52" r="28.407" style="fill:rgb(212,207,199);stroke:rgb(212,207,199);stroke-width:1px;"/>
    </g>
    <path d="M593.749,1363.42L682.057,1305.99L700.583,1212.74" style="fill:none;stroke:rgb(212,207,199);stroke-width:13.1px;"/>
    <path d="M682.057,1305.99L943.274,1259.06L784.568,1543.74" style="fill:none;stroke:rgb(212,207,199);stroke-width:13.1px;"/>
    <path d="M682.057,1305.99L815.905,1487.53L995.147,1410.35L942.657,1259.67" style="fill:none;stroke:rgb(212,207,199);stroke-width:13.1px;"/>
    <path d="M815.905,1487.53L1103.57,1538.05" style="fill:none;stroke:rgb(212,207,199);stroke-width:12.92px;"/>
    <path d="M942.657,1259.67L1335.41,1473.96" style="fill:none;stroke:rgb(212,207,199);stroke-width:13.1px;"/>
    <path d="M1105.69,1536.95L1335.41,1473.96L1421.25,1269.55L1204.49,1278.2L999.47,1407.88L1063.08,1615.37" style="fill:none;stroke:rgb(212,207,199);stroke-width:13.1px;"/>
    <path d="M1105.69,1536.95L1204.49,1278.2L1213.76,1208.42" style="fill:none;stroke:rgb(212,207,199);stroke-width:13.1px;"/>
    <path d="M1204.49,1278.2L1336.64,1475.19" style="fill:none;stroke:rgb(212,207,199);stroke-width:13.1px;"/>
    <path d="M1420.63,1267.7L1535.49,1365.89" style="fill:none;stroke:rgb(212,207,199);stroke-width:13.1px;"/>
    <g id="Layer1">
    </g>
</svg>
