<?xml version="1.0" encoding="UTF-8" standalone="no"?>
<!DOCTYPE svg PUBLIC "-//W3C//DTD SVG 1.1//EN" "http://www.w3.org/Graphics/SVG/1.1/DTD/svg11.dtd">
<svg width="100%" height="100%" viewBox="0 0 2200 2200" version="1.1" xmlns="http://www.w3.org/2000/svg" xmlns:xlink="http://www.w3.org/1999/xlink" xml:space="preserve" xmlns:serif="http://www.serif.com/" style="fill-rule:evenodd;clip-rule:evenodd;">
    <g transform="matrix(0.990813,0,0,0.990813,1100,1100)">
        <g transform="matrix(1,0,0,1,-1053.49,-1025.5)">
            <g transform="matrix(-2.05237,0,0,2.05237,2104.24,-34.3193)">
                <path d="M492,1008.42C465.516,1006.67 453.461,1005.59 441,1003.88C388.965,996.711 337.694,981.504 291.392,959.503C187.876,910.315 105.422,829.462 55.84,728.525C-23.141,567.74 -6.896,378.99 98.487,232.996C133.244,184.845 177.97,142.183 229,108.506C353.915,26.069 510.644,2.584 656,44.523C756.021,73.381 844.692,132.079 909.753,212.5C1021.27,350.341 1048.46,535.046 981.476,699.695C942.693,795.027 869.312,879.987 778.5,934.702C709.395,976.338 636.009,1000.01 554.5,1006.97C541.583,1008.08 501.007,1009.01 492,1008.42Z" style="fill:rgb(212,207,199);fill-rule:nonzero;"/>
            </g>
            <g transform="matrix(-2.00707,0,0,2.00707,2081.05,-10.9308)">
                <path d="M492,1008.42C465.516,1006.67 453.461,1005.59 441,1003.88C388.965,996.711 337.694,981.504 291.392,959.503C187.876,910.315 105.422,829.462 55.84,728.525C-23.141,567.74 -6.896,378.99 98.487,232.996C133.244,184.845 177.97,142.183 229,108.506C353.915,26.069 510.644,2.584 656,44.523C756.021,73.381 844.692,132.079 909.753,212.5C1021.27,350.341 1048.46,535.046 981.476,699.695C942.693,795.027 869.312,879.987 778.5,934.702C709.395,976.338 636.009,1000.01 554.5,1006.97C541.583,1008.08 501.007,1009.01 492,1008.42Z" style="fill:rgb(18,48,48);fill-rule:nonzero;stroke:black;stroke-width:0.8px;"/>
            </g>
            <g transform="matrix(-2.00707,0,0,2.00707,2081.05,-10.9308)">
                <path d="M482.46,922.256C479.457,914.47 477,907.651 477,907.103C477,906.555 478.628,903.33 480.618,899.935L484.235,893.762L492.358,894.471C496.826,894.861 500.79,895.37 501.168,895.604C501.545,895.837 502.398,897.675 503.062,899.688C503.726,901.701 505.332,905.669 506.631,908.505L508.992,913.662L522.246,917.792C542.613,924.139 578.241,933.069 577.712,931.695C577.459,931.038 573.57,924.949 569.071,918.165L560.89,905.831L563.269,898.665L565.649,891.5L571.074,890.346C581.761,888.074 581.862,888.116 588,897.284L593.5,905.5L601.5,906.161C605.9,906.525 619.4,907.317 631.5,907.921C643.6,908.526 656.313,909.215 659.75,909.453C663.188,909.691 666,909.76 666,909.607C666,909.453 660.84,904.192 654.534,897.914L643.067,886.5L644.089,878.528C644.651,874.143 645.199,870.469 645.306,870.362C645.413,870.256 648.537,869.027 652.248,867.63L658.996,865.091L666.583,871.735L674.17,878.378L688.835,876.628C704.113,874.805 739.509,869.419 744.209,868.202C746.708,867.554 745.868,866.843 733.383,859.031C725.939,854.374 719.708,850.324 719.537,850.031C719.366,849.739 718.91,845.855 718.522,841.4L717.818,833.3L730.09,824.923L747.885,834.955L769.693,827.549C781.687,823.475 794.65,818.819 798.5,817.201C813.217,811.017 816,809.71 816,808.981C816,808.568 812.737,807.317 808.75,806.202C799.217,803.535 788.1,799.527 787.107,798.399C786.672,797.904 785.098,793.992 783.609,789.705L780.903,781.911L783.841,778.205C790.032,770.399 789.732,770.492 799.317,773.416C803.977,774.837 808.578,776 809.541,776C811.795,776 840.652,759.656 853,751.386C858.225,747.887 864.489,743.253 866.919,741.089L871.338,737.154L867.919,736.604C866.039,736.302 860.225,735.571 855,734.98C839.881,733.269 840.808,733.724 835.558,725.437L830.828,717.97L834.647,711.442L838.466,704.914L843.983,705.501C847.017,705.823 851.525,706.315 854,706.594C858.448,707.094 858.611,707.003 868,698.817C873.225,694.261 881.244,686.947 885.819,682.563C894.433,674.309 909,657.123 909,655.214C909,654.561 907.7,654.305 905.75,654.573C903.963,654.82 897.1,655.7 890.5,656.53L878.5,658.038L872.296,651.676C866.117,645.34 866.096,645.298 867.213,641.657L868.336,638L941,638L941,624.998L514.25,625.249L87.5,625.5L87.5,637.5L130.543,638.038L130.156,665.019C129.942,679.87 130.158,691.979 130.634,691.954C131.11,691.929 135.755,686.754 140.956,680.454L150.412,669L164.916,669L167.385,673.25C168.743,675.588 170.608,679.406 171.53,681.735L173.205,685.971L168.066,692.511L162.926,699.052L164.389,709.276C165.194,714.899 166.15,721.975 166.513,725C168.407,740.764 175.408,769.166 177.399,769.16C177.893,769.158 181.33,763.384 185.037,756.328C192.321,742.464 192.596,742.216 202.5,740.577L206.5,739.915L211.75,746.938C214.637,750.801 217,754.384 217,754.899C217,755.415 215.466,759.038 213.591,762.951L210.182,770.064L212.703,778.282C215.731,788.151 219.373,797.449 224.871,809.346C229.652,819.691 239.011,836.322 239.678,835.656C239.931,835.402 242.02,828.585 244.319,820.506L248.5,805.816L254.42,803.408C257.676,802.084 260.826,801.007 261.42,801.016C262.014,801.026 265.405,803.652 268.955,806.854L275.409,812.675L273.191,820.965L270.972,829.255L275.615,837.305C278.169,841.733 282.522,848.527 285.288,852.403C293.888,864.456 313.648,887.686 314.54,886.793C314.726,886.607 315.197,879.622 315.586,871.27L316.293,856.084L322.027,852.062L327.761,848.04L335.979,851.77L344.198,855.5L343.679,864.756L343.16,874.013L347.432,879.256C352.441,885.403 361.773,893.752 373.895,902.932C378.665,906.545 385.968,912.088 390.123,915.25C394.278,918.412 397.899,921 398.169,921C398.439,921 397.547,913.982 396.187,905.404L393.715,889.808L398.734,884.79L403.753,879.771L411.355,881.563C415.536,882.549 419.348,883.613 419.825,883.928C420.302,884.242 421.324,888.55 422.096,893.5L423.5,902.5L430.5,907.295C436.686,911.532 486.951,937.382 487.648,936.685C487.798,936.535 485.463,930.042 482.46,922.256Z" style="fill:rgb(212,207,199);fill-rule:nonzero;stroke:black;stroke-width:0.8px;"/>
            </g>
            <g transform="matrix(-2.00707,0,0,2.00707,2081.05,-10.9308)">
                <path d="M941,417L941,405.026L905.895,404.763L870.79,404.5L865.942,391.602L873.62,383.879L881.298,376.156L880.669,359.328C880.323,350.073 879.567,340.25 878.989,337.5C878.411,334.75 877.044,326.454 875.95,319.064C874.856,311.674 873.789,305.456 873.579,305.245C873.172,304.839 862.995,318.932 859.123,325.263C856.038,330.306 854.413,331 845.683,331L838.234,331L834.617,324.928C832.628,321.589 831,318.539 831,318.152C831,317.764 833.475,313.891 836.5,309.545C839.525,305.199 841.998,300.711 841.996,299.572C841.989,295.38 822.16,235.115 819.987,232.676C819.308,231.915 809.737,253.217 808.445,258.364C807.987,260.186 806.405,261.069 800.458,262.818C796.379,264.018 792.453,265 791.734,265C791.014,265 788.274,262.817 785.646,260.148L780.868,255.297L784.447,245.014L788.026,234.731L780.868,222.115C761.677,188.295 751.65,171.877 750.966,173.156C750.571,173.895 749.499,178.775 748.585,184C744.882,205.161 745.894,202.997 737.644,207.401L730.336,211.303L724.039,207.026L717.741,202.75L718.342,197.125C718.673,194.031 719.217,189.475 719.552,187L720.162,182.5L704.183,164C695.395,153.825 684.303,141.675 679.536,137L670.867,128.5L671.556,144.5L672.246,160.5L667.373,164.509C664.693,166.714 661.781,169.074 660.903,169.755C659.601,170.763 657.998,170.509 652.24,168.383C644.508,165.529 644.037,164.87 644.014,156.875C643.985,147.11 643.939,147.047 627.638,134.236C605.119,116.537 585.923,103.743 584.31,105.357C583.98,105.686 585.351,111.717 587.355,118.757C589.36,125.798 591,132.311 591,133.231C591,134.151 588.951,137.835 586.448,141.417C582.414,147.187 581.588,147.873 579.198,147.441C577.714,147.173 574.041,146.623 571.035,146.218L565.569,145.482L563.035,136.631L560.5,127.78L542.755,118.887C521.644,108.308 511.029,103.809 500.957,101.173C496.856,100.1 493.393,99.316 493.262,99.432C493.131,99.548 496.169,105.6 500.012,112.882C503.855,120.163 507,126.485 507,126.931C507,127.377 505.576,130.966 503.835,134.907L500.67,142.073L492.107,141.787L483.544,141.5L479.062,133.786L474.581,126.072L456.04,121.611C445.843,119.157 435.025,116.671 432,116.087C426.197,114.966 403.932,112.734 403.442,113.225C403.284,113.383 407.621,118.771 413.08,125.198L423.005,136.884L421.887,144.405L420.768,151.926L415.416,153.481C412.473,154.337 408.706,155.309 407.045,155.641L404.025,156.245L408.163,161.373C410.439,164.193 415.251,170.475 418.856,175.334C424.685,183.189 425.694,184.107 427.956,183.616C448.305,179.205 455.336,177.881 465.5,176.544C557.332,164.471 649.393,189.364 721.929,245.881C756.305,272.666 780.384,299.829 807.395,342.296C815.262,354.664 836,399.367 836,403.957C836,404.632 831.03,405 821.916,405L807.831,405L805.188,398.75C798.939,383.976 783.635,355.215 775.706,343.346C741.148,291.608 693.692,251.626 638.5,227.75C607.54,214.356 578.363,206.448 546.5,202.816C532.162,201.182 489.557,201.172 475.5,202.799C460.683,204.515 442,208.129 442,209.279C442,209.792 443.437,212.077 445.193,214.356C446.949,216.635 448.414,218.578 448.449,218.673C448.484,218.768 455.035,217.743 463.006,216.396C486.374,212.446 524.648,211.591 547.42,214.51C595.454,220.669 641.185,237.568 680,263.504C723.111,292.311 757.428,330.093 781.27,375C785.839,383.607 795,403.404 795,404.672C795,404.853 736.5,405 665,405C556.952,405 535,404.774 535,403.659C535,402.921 530.852,397.409 525.782,391.409L516.564,380.5L527.322,390.41C535.044,397.524 538.385,400.015 539.163,399.237C540.417,397.983 539.183,396.048 528.496,382.5C518.01,369.207 518.451,369.249 531.993,382.837L544.288,395.173L550.289,389.173L547.083,383.336L543.878,377.5L547.522,381.75C551.592,386.497 552.896,386.878 555.443,384.063C557.502,381.788 557.79,382.365 548.315,369.798C544.292,364.462 541,359.795 541,359.426C541,359.057 545.511,363.085 551.025,368.377C556.539,373.67 561.394,378 561.813,378C562.232,378 564.78,375.761 567.475,373.025L572.375,368.05L568.98,363.275C565.787,358.786 566.451,358.788 571.458,363.281C573.572,365.177 576.093,365.226 576.707,363.382C576.911,362.766 571.792,356.241 565.329,348.882C558.183,340.743 555.327,336.972 558.04,339.256C560.493,341.322 566.942,346.642 572.371,351.077L582.243,359.142L585.103,356.401C587.473,354.13 587.752,353.394 586.732,352.105C586.054,351.249 581.338,345.702 576.25,339.78C571.162,333.857 567,328.742 567,328.414C567,328.086 571.838,332.403 577.75,338.007C589.875,349.498 591.322,350.522 592.843,348.689C593.624,347.748 592.681,345.877 589.198,341.46C585.927,337.31 585.259,336.029 587,337.242C588.375,338.2 591.416,340.158 593.759,341.592L598.017,344.2L599.975,341.85C601.052,340.558 601.929,339.275 601.923,339C601.918,338.725 598.895,336.353 595.207,333.73C588.697,329.1 580,321.474 580,320.396C580,320.103 581.237,320.737 582.75,321.804C588.381,325.776 606.505,333.828 607.524,332.81C607.736,332.598 604.391,330.316 600.091,327.739C591.328,322.487 577.585,311.751 562.185,298.126C556.513,293.107 551.28,289 550.558,289C549.836,289 548.708,289.647 548.052,290.437C547.077,291.612 548.281,293.395 554.633,300.187C558.908,304.759 564.902,311.168 567.953,314.429L573.5,320.357L568.05,315.929C565.052,313.493 558.628,307.725 553.773,303.111C548.918,298.496 544.669,294.998 544.33,295.337C543.992,295.675 547.379,299.706 551.857,304.294C556.336,308.883 560,312.96 560,313.355C560,313.751 555.716,310.41 550.48,305.931C542.629,299.216 540.703,298.001 539.497,299.003C538.238,300.047 538.416,300.674 540.767,303.477C553.523,318.688 553.539,318.776 541.607,308.139C537.649,304.611 535.383,303.217 534.706,303.894C533.69,304.91 542.468,315.324 552.498,325C561.675,333.853 561.289,335.338 551.977,327C536.729,313.346 530,307.74 530,308.689C530,309.176 532.25,311.791 535,314.5C540.779,320.192 541.851,323.127 536.25,317.92C529.826,311.949 528.161,310.782 527.047,311.471C526.394,311.874 528.44,315.011 532.234,319.423C535.68,323.43 540.944,329.586 543.931,333.104L549.363,339.5L542.431,332.996C538.619,329.418 532.763,323.882 529.417,320.692C524.538,316.041 523.113,315.159 522.22,316.235C521.348,317.285 524.172,321.158 535.202,334.039L549.298,350.5L538.899,340.413C520.895,322.95 517.554,320.052 516.563,321.04C515.982,321.62 516.39,322.831 517.642,324.237C526.344,334.007 534,343.134 534,343.738C534,344.136 529.604,340.083 524.232,334.731C518.86,329.379 513.936,325 513.291,325C510.203,325 511.405,327.871 518.158,336.624C529.89,351.831 529.901,352.076 518.35,340.709C507.59,330.12 507.351,329.954 505.602,331.888C503.869,333.802 504.038,334.148 511.611,344.179L519.402,354.5L509.5,345.5L499.599,336.5L508.781,348.5C513.832,355.1 520.033,363.087 522.563,366.25C525.092,369.413 526.967,372 526.729,372C526.491,372 519.819,365.025 511.904,356.5C503.988,347.975 496.973,341 496.315,341C493.222,341 494.574,343.772 502.762,354.219C507.624,360.424 511.925,366.033 512.32,366.684C512.714,367.335 508.112,362.838 502.094,356.691C496.075,350.545 490.889,345.777 490.57,346.097C490.25,346.417 492.941,350.689 496.549,355.589L503.111,364.5L495.556,356.59C491.4,352.239 488,349.214 488,349.866C488,350.518 493.288,357.676 499.75,365.773C506.212,373.869 512.342,381.62 513.371,382.997C515.721,386.14 506.46,376.723 493.759,363.056C488.421,357.312 483.764,352.903 483.409,353.258C482.724,353.943 482.79,354.038 493.238,367.389C496.943,372.125 499.783,376 499.548,376C499.313,376 494.844,371.612 489.616,366.25C480.768,357.173 479.997,356.614 478.443,358.148C476.888,359.685 477.21,360.329 483.202,367.648C496.889,384.366 510,402.206 510,404.112C510,404.625 450.452,405 369,405C270.631,405 228,404.681 228,403.943C228,399.562 243.636,368.41 253.678,352.784C283.628,306.18 328.47,266.527 377.264,243.5C384.256,240.2 389.957,237.275 389.932,237C389.907,236.725 387.676,234.817 384.975,232.76L380.065,229.021L366.782,235.849C341.183,249.008 323.196,261.232 300.5,280.894C286.406,293.104 264.886,317.118 252.461,334.5C240.029,351.891 225.369,378.341 217.957,396.75L214.636,405L200.318,405C192.443,405 186.003,404.663 186.007,404.25C186.032,401.601 194.521,381.625 202.473,365.5C217.129,335.782 238.385,305.216 260.849,281.556C286.76,254.265 321.482,227.964 352.051,212.474C354.773,211.095 357,209.713 357,209.404C357,209.095 354.819,206.29 352.154,203.171C349.489,200.052 345.175,194.462 342.567,190.75C339.958,187.038 337.301,184.003 336.662,184.007C336.023,184.01 334.15,184.907 332.5,186C330.85,187.093 328.943,187.99 328.261,187.993C327.58,187.997 324.276,185.911 320.919,183.358L314.815,178.716L306.657,179.327C302.171,179.663 292.643,181.5 285.485,183.409C273.404,186.631 248.973,194.796 245.352,196.823C243.711,197.741 245.535,198.726 264.273,207.048C271.281,210.16 272.141,210.85 273.009,214.054C275.614,223.674 275.791,223.093 268.225,229.801L261.272,235.965L253.022,232.39L244.772,228.815L238.636,231.038C235.261,232.261 229.008,235.01 224.74,237.147C216.84,241.103 190.194,256.465 184.2,260.52L180.9,262.752L194.2,265.884C201.515,267.607 208.281,269.013 209.236,269.008C210.361,269.003 212.056,271.149 214.057,275.113L217.143,281.226L212.533,288.159C209.997,291.973 207.296,295.333 206.531,295.626C205.766,295.92 201.483,295.414 197.013,294.503C189.585,292.988 188.677,292.981 186.469,294.429C179.975,298.684 153.818,320.703 138.693,334.646L132.886,340L164.935,340L169.136,345.564L173.338,351.129L169.469,359.064L165.6,367L158.05,367.07C153.897,367.109 149.623,367.484 148.552,367.903C146.649,368.648 143.646,372.278 126.76,394.248L118.5,404.996L102.75,404.998L87,405L87,417L941,417Z" style="fill:rgb(212,207,199);fill-rule:nonzero;"/>
            </g>
            <g transform="matrix(-2.00707,0,0,2.00707,2081.05,-10.9308)">
                <path d="M478.404,350.434C497.663,332.473 546.324,285.263 547.128,283.76C547.654,282.777 547.728,281.365 547.292,280.62C545.01,276.723 505.337,236.965 502.873,236.106C500.613,235.318 498.516,235.628 492.761,237.599C474.309,243.919 459.206,242.006 445.142,231.566C439.087,227.072 432.806,218.88 416.725,194.5C400.464,169.85 387.218,155.601 372.651,147.09C358.825,139.012 345.986,135.332 340.977,138.012C334.648,141.4 340.464,164.524 352.187,182.582C358.962,193.017 378.504,212.446 392.401,222.564C416.801,240.328 423.167,246.515 428.349,257.5C433.943,269.361 434.324,281.922 429.471,294.5C426.06,303.339 425.375,308.27 427.196,310.87C430.043,314.935 470.248,355.999 471.353,355.97C471.984,355.954 475.157,353.463 478.404,350.434Z" style="fill:rgb(212,207,199);fill-rule:nonzero;"/>
            </g>
            <g transform="matrix(-2.00707,0,0,2.00707,2081.05,-10.9308)">
                <path d="M498,862.323C416.873,858.969 342.484,828.767 281,774.222C250.083,746.795 222.195,710.292 203.185,672.369C197.883,661.792 188,639.72 188,638.455C188,638.205 194.551,638 202.557,638L217.114,638L220.267,645.25C243.623,698.958 285.714,748.92 335.598,782.148C392.513,820.059 462.199,839.152 528.583,835.023C605.06,830.266 677.314,798.593 731.131,746.232C762.356,715.853 785.912,681.81 803.084,642.25L804.929,638L819.571,638C830.902,638 834.094,638.283 833.682,639.25C833.39,639.938 831.516,644.495 829.518,649.378C810.739,695.271 778.887,740.359 741.715,773.666C685.469,824.063 613.725,855.395 542,860.884C526.31,862.085 507.286,862.707 498,862.323Z" style="fill:rgb(18,48,48);fill-rule:nonzero;"/>
            </g>
            <g transform="matrix(-2.00707,0,0,2.00707,2081.05,-10.9308)">
                <path d="M485,826.022C471.745,824.739 451.745,821.146 437.5,817.49C352.594,795.7 276.184,733.187 236.935,653.404C233.121,645.651 230,639.013 230,638.654C230,638.294 251.559,638 277.909,638L325.818,638L326.159,648.331C326.474,657.887 326.714,658.943 329.349,662.394C332.356,666.333 332.318,665.747 330.377,678.185C329.869,681.446 330.216,682.283 333.401,685.468C335.381,687.447 337,689.302 337,689.591C337,689.879 336.516,692.036 335.925,694.384C334.973,698.164 335.172,699.504 337.663,706.076C340.083,712.465 341.545,714.546 348.143,721C355.084,727.79 355.916,729.023 356.929,734.025C358.411,741.339 361.07,745.485 365.842,747.919C368.297,749.172 370.739,751.585 372.372,754.372C375.891,760.376 386.699,769.95 395.252,774.638C400.473,777.5 403.173,779.789 405.876,783.644C410.828,790.706 413.686,792.234 421.844,792.178C428.159,792.135 428.739,792.334 433.179,796.066C435.753,798.23 438.363,800 438.979,800C441.3,800 446.048,803.114 445.378,804.197C444.967,804.862 445.145,805.028 445.82,804.611C446.525,804.175 443.992,800.924 439.078,795.957L431.206,788L425.252,788C416.404,788 413.444,786.598 409.597,780.584C406.931,776.417 404.897,774.668 399.283,771.718C391.64,767.702 378.839,756.523 376.332,751.676C374.648,748.419 371.191,745.088 369.437,745.033C366.92,744.954 363.031,739.242 361.919,733.987C360.257,726.14 358.725,723.681 352.465,718.815C348.272,715.556 346.067,712.815 343.457,707.616C339.74,700.213 339.389,698.052 341.104,693.132C342.627,688.763 341.548,685.435 337.919,683.303C335.176,681.692 334.911,681.126 335.433,678C337.443,665.97 337.355,664.575 334.357,661.015C331.711,657.873 331.475,656.899 331.156,647.811L330.813,638L345,638L345,643.276C345,657.618 349.329,677.494 356.228,694.83L360.339,705.159L363.885,704.494C368.779,703.576 373,701.243 373,699.456C373,698.635 370.732,693.445 367.961,687.922C361.705,675.457 357.466,662.892 356.07,652.678C354.611,642.011 354.689,638 356.353,638C357.31,638 357.888,640.126 358.325,645.25C359.278,656.424 363.392,669.028 372.394,688.36C375.867,695.816 377.359,698.076 378.516,697.632C379.722,697.17 379.844,697.422 379.094,698.824C376.879,702.964 387.775,719.642 401.067,732.455C410.01,741.076 420.48,748.4 440,759.688C460.533,771.561 469.419,775.446 484.5,779.143C503.659,783.84 533.237,780.965 560.881,771.72C572.624,767.793 589.279,759.561 594.942,754.885L597.384,752.868L595.535,749.434C594.517,747.545 593.335,746 592.907,746C592.479,746 588.387,748.699 583.814,751.998C569.173,762.562 552.311,769.447 536,771.522C533.525,771.837 530.15,772.291 528.5,772.53C522.569,773.391 528.466,771.265 535.5,770.006C544.465,768.402 560.069,763.485 566.5,760.237C573.571,756.667 584.514,749.324 588.832,745.252C590.849,743.349 592.725,741.816 593,741.845C594.084,741.959 614.279,724.423 618.021,720.117C620.21,717.599 622,715.998 622,716.559C622,718.239 609.801,731.076 602.146,737.451C598.216,740.724 595,743.902 595,744.514C595,745.125 596.253,746.826 597.784,748.293L600.567,750.96L608.786,743.397C629.87,723.996 646.947,698.52 654.632,675C658.14,664.266 660.324,650.585 659.622,643.75C659.123,638.902 659.281,638 660.629,638C662.039,638 662.17,639.619 661.746,651.75C661.147,668.901 659.194,676.497 651.125,693.08C642.977,709.821 631.445,725.588 615.78,741.404L602.998,754.309L605.605,757.726C607.039,759.606 608.841,761.386 609.611,761.681C612.541,762.805 631.96,744.607 641.116,732.157L644.157,728.022L641.112,723.511C637.836,718.656 637.859,718.237 641.285,720.396C646.831,723.891 647.458,723.601 652.335,715.281C665.187,693.357 672.298,670.894 673.707,647.773L674.302,638L680.651,638C686.731,638 687,638.104 687,640.463C687,641.818 687.913,645.243 689.029,648.075L691.059,653.224L688.282,657.862C685.831,661.956 685.527,663.393 685.685,670.116C685.833,676.427 685.447,678.556 683.432,682.536C681.957,685.448 681,689.063 681,691.719C681,697.404 679.388,700.3 672.496,707C665.952,713.361 662.959,718.735 658.515,732.106C654.443,744.354 651.473,748.305 644.329,750.978C634.171,754.779 633.062,755.676 629.954,762.603C627.59,767.872 626.395,769.355 623.558,770.54C621.639,771.342 617.788,774.023 615.001,776.499C610.47,780.523 609.418,781 605.066,781C600.347,781 600.035,781.188 594.868,787.152C588.665,794.312 583.659,796.947 576.2,796.978C570.757,797.001 566.389,798.621 563.994,801.507C561.693,804.28 555.975,806.632 544.5,809.525C529.2,813.382 519.524,813.448 511.629,809.75C504.676,806.493 500.314,806.289 495.052,808.974C488.989,812.066 484.385,812.345 475.168,810.176C469.191,808.77 466.028,807.443 463.982,805.483C461.507,803.111 460.262,802.733 454.575,802.625C449.749,802.533 447.878,802.874 447.477,803.92C446.697,805.953 448.837,806.967 453.945,806.985C457.249,806.996 459.047,807.617 460.945,809.402C464.434,812.682 471.794,814.97 481.187,815.694C488.282,816.241 489.728,816.025 496.077,813.469L503.11,810.638L508.805,813.528C513.547,815.935 516.033,816.487 523.666,816.825C531.488,817.172 534.704,816.765 545.597,814.054C560.021,810.464 561.231,809.961 565.744,805.69C568.471,803.109 570.099,802.5 575.952,801.875C586.567,800.741 592.035,797.698 599.743,788.637C601.538,786.527 602.866,786 606.385,786C610.134,786 611.573,785.337 616.141,781.509C619.089,779.038 623.523,776.001 625.996,774.759C629.736,772.879 630.996,771.451 633.496,766.258C636.815,759.361 637.94,758.367 646.112,755.114C655.289,751.461 659.316,746.163 663.785,731.866C667.749,719.183 668.797,717.371 676.908,709.162C683.954,702.032 685.982,698.088 685.994,691.492C685.997,689.838 687.135,686.353 688.521,683.748C690.696,679.663 691.005,677.941 690.771,671.227C690.539,664.557 690.854,662.774 692.971,658.774C695.269,654.43 695.35,653.805 694.128,649.802C693.406,647.436 692.585,643.813 692.303,641.75L691.79,638L792.135,638L791.467,640.25C790.34,644.051 776.652,669.972 770.649,679.675C753.198,707.878 725.242,739.048 699.307,759.217C652.222,795.834 609.19,814.547 550,824.145C535.978,826.418 499.863,827.462 485,826.022Z" style="fill:rgb(18,48,48);fill-rule:nonzero;"/>
            </g>
            <g transform="matrix(-2.00707,0,0,2.00707,2081.05,-10.9308)">
                <path d="M531.721,795.51C554.882,792.218 578.837,783.463 597.75,771.379C603.539,767.68 603.95,766.415 601.417,760.085L599.835,756.13L594.667,759.431C579.939,768.839 563.711,774.889 537.972,780.568C501.777,788.555 481.134,785.697 449.5,768.318C427.413,756.183 413.847,747.846 407.147,742.288C395.401,732.544 385.571,721.252 378.913,709.851C374.491,702.28 374.814,702.331 368.095,708.147L363.881,711.794L368.575,719.147C383.667,742.789 405.873,763.939 427.229,775.011L433.647,778.339L437.951,773.669C440.318,771.101 442.6,769 443.023,769C443.445,769 443.069,771.694 442.186,774.987C440.641,780.756 440.654,781.027 442.541,782.442C447.702,786.307 474.09,794.007 488.5,795.851C499.538,797.264 520.552,797.098 531.721,795.51Z" style="fill:rgb(212,207,199);fill-rule:nonzero;"/>
            </g>
            <g transform="matrix(-2.00707,0,0,2.00707,2081.05,-10.9308)">
                <path d="M490.5,769.414C474.608,766.956 462.266,763.306 450.153,757.481C413.09,739.659 387.671,711.715 375.98,675.939C370.579,659.412 368.051,638 371.5,638C372.669,638 373,639.344 373,644.093C373,651.992 376.28,667.969 379.986,678.124C388.892,702.528 408.159,728.05 427.446,740.993C436.448,747.034 453.81,755.482 465.09,759.308C469.264,760.724 479.164,763.502 487.09,765.482C495.015,767.461 502.85,769.466 504.5,769.938C507.419,770.773 507.392,770.796 503.5,770.801C501.3,770.804 495.45,770.18 490.5,769.414Z" style="fill:rgb(18,48,48);fill-rule:nonzero;"/>
            </g>
            <g transform="matrix(-2.00707,0,0,2.00707,2081.05,-10.9308)">
                <path d="M496.5,761.927C490.45,760.876 483.25,759.301 480.5,758.428C475.371,756.799 462.546,750.121 463.231,749.435C463.441,749.225 467.249,750.625 471.692,752.546C485.256,758.41 495.909,760.325 515.5,760.418C543.828,760.554 551.392,758.129 577.5,740.537C595.885,728.149 600.095,724.41 607.475,713.919C610.409,709.749 616.003,702.158 619.908,697.05C632.417,680.687 637.737,667.019 638.711,648.75C639.143,640.64 639.617,638 640.642,638C642.603,638 642.442,654.243 640.396,662.794C637.666,674.201 630.063,688.112 615.961,707.5C600.212,729.153 600.405,728.938 591,735.317C571.302,748.679 558.465,756.082 550.782,758.509C532.96,764.139 515.541,765.236 496.5,761.927Z" style="fill:rgb(18,48,48);fill-rule:nonzero;"/>
            </g>
            <g transform="matrix(-2.00707,0,0,2.00707,2081.05,-10.9308)">
                <path d="M503.269,752.936C493.481,751.663 485.588,749.357 470.5,743.361C453.094,736.445 439.46,729.419 430.662,722.83C416.874,712.504 405.992,696.34 398.463,675C395.103,665.476 394.711,663.269 394.249,651.25C393.811,639.876 393.953,638 395.249,638C396.487,638 396.846,640.206 397.242,650.25C397.672,661.15 398.135,663.657 401.446,673C408.816,693.794 418.755,709.122 431.143,718.8C443.341,728.331 470.922,741.264 490.703,746.729C499.302,749.105 502.334,749.44 515.5,749.468C528.168,749.495 531.711,749.149 538.292,747.242C553.127,742.942 573.739,730.658 587.178,718.107C595.759,710.094 611.414,691.121 618.685,679.925C621.39,675.759 624.615,669.269 625.851,665.503C628.366,657.844 630.419,643.805 629.538,640.295C629.07,638.431 629.368,638 631.129,638C633.247,638 633.28,638.212 632.619,647.622C631.377,665.29 624.785,679.472 608.484,699.546C584.07,729.61 554.002,748.989 525.678,752.916C516.963,754.124 512.432,754.128 503.269,752.936Z" style="fill:rgb(18,48,48);fill-rule:nonzero;"/>
            </g>
            <g transform="matrix(-2.00707,0,0,2.00707,2081.05,-10.9308)">
                <path d="M497,738.039C477.955,734.821 464.988,730.575 448.59,722.189C423.841,709.532 408.776,683.295 407.283,650.25C406.795,639.449 406.92,638 408.333,638C409.689,638 409.933,639.424 409.919,647.25C409.876,672.282 421.437,697.694 439.482,712.232C462.215,730.546 509.973,741.784 536.374,735.032C553.494,730.654 571.336,719.944 585.635,705.465C604.577,686.283 615.924,663.208 615.983,643.75C615.997,639.079 616.31,638 617.651,638C619.11,638 619.231,639.074 618.694,647.256C617.968,658.31 615.261,667.679 609.678,678.464C595.378,706.084 565.221,730.91 537.289,738.054C527.655,740.518 511.635,740.512 497,738.039Z" style="fill:rgb(18,48,48);fill-rule:nonzero;"/>
            </g>
            <g transform="matrix(-2.00707,0,0,2.00707,2081.05,-10.9308)">
                <path d="M437.368,735.649C424.875,728.915 412.692,717.852 405.785,706.971C398.557,695.583 381.942,661.536 380.968,656.114C379.21,646.333 379.849,638 382.357,638C383.127,638 383.5,640.853 383.5,646.75L383.5,655.5L394.353,678C407.822,705.925 410.284,710.015 418.734,718.514C424.502,724.315 435.893,733.465 442.607,737.691C446.351,740.048 443.378,738.889 437.368,735.649Z" style="fill:rgb(18,48,48);fill-rule:nonzero;"/>
            </g>
            <g transform="matrix(-2.00707,0,0,2.00707,2081.05,-10.9308)">
                <path d="M522.5,730.863C548.22,727.614 572.193,714.845 586.521,696.765C598.755,681.326 607.975,658.563 607.993,643.75C607.997,640.188 608.425,638 609.117,638C609.897,638 610.024,640.034 609.54,644.75C605.853,680.682 582.989,712.455 551.847,724.925C541.417,729.101 528.701,732.01 521.5,731.867L515.5,731.747L522.5,730.863Z" style="fill:rgb(18,48,48);fill-rule:nonzero;"/>
            </g>
            <g transform="matrix(-2.00707,0,0,2.00707,2081.05,-10.9308)">
                <path d="M489.501,723.451C476.045,719.762 457.926,707.985 445.448,694.817C429.183,677.654 422.873,666.405 422.188,653.354C421.684,643.751 422.527,638 424.44,638C425.487,638 425.595,638.839 424.919,641.75C423.533,647.716 423.861,657.519 425.619,662.715C429.042,672.829 443.816,690.689 459.897,704.151C475.778,717.447 487.781,722.382 504,722.284C521.697,722.178 542.55,717.36 557.79,709.855C578.767,699.527 589.602,683.425 594.509,655.29C595.329,650.586 596,644.772 596,642.369C596,639.966 596.45,638 597,638C598.478,638 598.226,651.647 596.591,660.162C592.043,683.847 578.278,703.304 559.5,712.588C540.06,722.2 504.863,727.662 489.501,723.451Z" style="fill:rgb(18,48,48);fill-rule:nonzero;"/>
            </g>
            <g transform="matrix(-2.00707,0,0,2.00707,2081.05,-10.9308)">
                <path d="M453.29,714.571C439.223,706.017 430.355,696.618 423.502,683C417.123,670.324 413.452,653.501 414.719,642.75C415.645,634.889 416.494,637.368 416.601,648.25C416.726,660.87 418.682,668.605 424.697,680.266C430.007,690.559 439.421,701.164 451.408,710.355C462.688,719.003 462.608,718.935 461.5,718.946C460.95,718.952 457.256,716.983 453.29,714.571Z" style="fill:rgb(18,48,48);fill-rule:nonzero;"/>
            </g>
            <g transform="matrix(-2.00707,0,0,2.00707,2081.05,-10.9308)">
                <path d="M512.5,713.309C524.112,711.796 534.243,709.576 538.572,707.595C546.365,704.028 568.51,688.406 571.977,684.029C578.542,675.74 586.504,652.758 586.105,643.25C585.973,640.088 586.306,638 586.943,638C589.752,638 586.176,657.385 579.337,679.22C576.915,686.954 570.684,692.796 554.565,702.444C538.206,712.236 532.361,714.057 518,713.833C513.325,713.76 510.85,713.524 512.5,713.309Z" style="fill:rgb(18,48,48);fill-rule:nonzero;"/>
            </g>
            <g transform="matrix(-2.00707,0,0,2.00707,2081.05,-10.9308)">
                <path d="M481.5,710.271C469.389,705.348 453.613,691.128 444.109,676.569C438.573,668.089 438.442,667.684 436.091,651.769C434.42,640.46 434.76,635.611 436.985,639C437.526,639.825 437.976,641.317 437.985,642.316C437.993,643.314 438.443,644.96 438.985,645.972C439.526,646.984 440.627,652.187 441.43,657.534C443.568,671.762 450.557,684.29 461.356,693.247C465.69,696.842 479.124,705.385 487.485,709.865L491.47,712L488.485,711.948C486.843,711.92 483.7,711.165 481.5,710.271Z" style="fill:rgb(18,48,48);fill-rule:nonzero;"/>
            </g>
            <g transform="matrix(-2.00707,0,0,2.00707,2081.05,-10.9308)">
                <path d="M626,711.615C626,711.255 627.078,709.252 628.396,707.165C632.959,699.937 639.083,686.867 642.034,678.059C645.143,668.777 649,648.667 649,641.734C649,639.497 649.31,637.977 649.69,638.357C651.436,640.102 648.769,659.742 644.871,673.847C641.341,686.622 634.565,700.927 627.801,709.885C626.81,711.197 626,711.975 626,711.615Z" style="fill:rgb(18,48,48);fill-rule:nonzero;"/>
            </g>
            <g transform="matrix(-2.00707,0,0,2.00707,2081.05,-10.9308)">
                <path d="M499.5,702.351C477.11,698.766 459,685.883 450.676,667.618C446.716,658.929 443.311,638 445.858,638C446.329,638 447.001,640.735 447.35,644.078C449.071,660.542 453.674,670.83 463.917,681.108C476.428,693.661 492.085,700 510.58,700C522.535,700 530.79,698.103 541.91,692.799C548.708,689.557 551.988,687.131 559.021,680.144C570.788,668.453 574.131,661.591 574.797,647.764C575.056,642.394 575.657,638 576.134,638C576.61,638 577,641.521 577,645.825C577,660.465 571.061,673.127 558.924,684.364C547.003,695.401 530.476,701.851 512.5,702.481C507,702.673 501.15,702.615 499.5,702.351Z" style="fill:rgb(18,48,48);fill-rule:nonzero;"/>
            </g>
            <g transform="matrix(-2.00707,0,0,2.00707,2081.05,-10.9308)">
                <path d="M494.5,693.553C487.544,691.776 484.786,690.564 478.41,686.486C471.708,682.198 465.114,675.576 461.634,669.639C458.187,663.757 454.44,651.928 453.591,644.25C453.008,638.975 453.142,638 454.45,638C455.665,638 456,639.207 456,643.574C456,650.259 459.898,662.564 464.096,669.132C472.268,681.916 489.826,692.678 503.34,693.186C505.353,693.262 507,693.701 507,694.162C507,695.367 500.331,695.042 494.5,693.553Z" style="fill:rgb(18,48,48);fill-rule:nonzero;"/>
            </g>
            <g transform="matrix(-2.00707,0,0,2.00707,2081.05,-10.9308)">
                <path d="M518.5,694.302C519.05,693.802 522.703,692.398 526.619,691.181C539.37,687.219 550.845,678.195 557.84,666.628C563.287,657.622 565.95,650.134 565.976,643.75C565.991,640.112 566.42,638 567.145,638C567.954,638 568.116,640.125 567.696,645.25C566.167,663.906 547.005,687.62 529.547,692.462C521.891,694.585 517.357,695.34 518.5,694.302Z" style="fill:rgb(18,48,48);fill-rule:nonzero;"/>
            </g>
            <g transform="matrix(-2.00707,0,0,2.00707,2081.05,-10.9308)">
                <path d="M493.5,686.629C480.022,681.536 470.892,672.743 464.434,658.638C461.551,652.339 459.759,638 461.856,638C462.559,638 463,639.891 463,642.911C463,653.578 469.064,666.276 477.991,674.302C494.922,689.525 514.869,690.37 536.643,676.788C549.347,668.863 554.837,660.086 555.742,646.25C556.039,641.713 556.724,638 557.263,638C557.864,638 558.074,641.395 557.804,646.75C557.222,658.286 554.034,664.959 545.262,672.997C529.792,687.172 509.253,692.581 493.5,686.629Z" style="fill:rgb(18,48,48);fill-rule:nonzero;"/>
            </g>
            <g transform="matrix(-2.00707,0,0,2.00707,2081.05,-10.9308)">
                <path d="M495.731,674.049C488.172,671.633 481.928,666.766 477.893,660.147C475.059,655.497 474.573,653.69 474.19,646.397C473.824,639.418 474.002,638 475.243,638C476.387,638 476.848,639.697 477.21,645.25C477.979,657.014 483.308,664.688 495.061,670.952C503.268,675.326 507.754,675.08 521.961,669.474C528.265,666.987 534.497,663.95 535.81,662.726C539.818,658.99 543.223,651.095 543.771,644.269C544.122,639.889 544.685,638 545.637,638C547.72,638 547.347,645.998 544.967,652.36C542.258,659.6 536.501,665.921 528.953,669.945C517.278,676.167 506.518,677.496 495.731,674.049Z" style="fill:rgb(18,48,48);fill-rule:nonzero;"/>
            </g>
            <g transform="matrix(-2.00707,0,0,2.00707,2081.05,-10.9308)">
                <path d="M502.324,663.56C491.094,660.049 484,651.414 484,641.257C484,638.667 484.409,638 486,638C487.725,638 488,638.667 488,642.852C488,649.44 490.992,653.664 498.523,657.712C506.789,662.155 513.829,663.667 519.015,662.114C527.332,659.622 534,650.912 534,642.54C534,640.043 534.45,638 535,638C537.802,638 534.685,651.102 530.612,656.442C526.852,661.372 518.888,665.015 512.054,664.933C508.999,664.896 504.621,664.279 502.324,663.56Z" style="fill:rgb(18,48,48);fill-rule:nonzero;"/>
            </g>
            <g transform="matrix(-2.00707,0,0,2.00707,2081.05,-10.9308)">
                <path d="M504.5,653.597C502.85,652.869 500.647,651.316 499.604,650.147C497.424,647.701 496.041,638 497.873,638C498.493,638 499,639.566 499,641.484C499,645.961 503.218,650.827 508,651.868C514.908,653.37 522.123,650.233 524.541,644.675C525.435,642.618 525.935,642.15 525.961,643.346C526.129,651.294 513.235,657.453 504.5,653.597Z" style="fill:rgb(18,48,48);fill-rule:nonzero;"/>
            </g>
            <g transform="matrix(-2.00707,0,0,2.00707,2081.05,-10.9308)">
                <path d="M505.2,644.8C504.54,644.14 504.029,642.227 504.063,640.55C504.126,637.523 504.134,637.519 505.116,639.979C505.66,641.343 506.826,643.256 507.708,644.229C509.049,645.711 509.073,646 507.855,646C507.055,646 505.86,645.46 505.2,644.8Z" style="fill:rgb(18,48,48);fill-rule:nonzero;"/>
            </g>
            <g transform="matrix(-2.00707,0,0,2.00707,2081.05,-10.9308)">
                <path d="M512.876,400.75C511.685,398.413 510.057,395.375 509.257,394C508.457,392.625 510.322,394.2 513.4,397.5C516.478,400.8 518.997,403.837 518.998,404.25C518.999,404.663 518.109,405 517.02,405C515.698,405 514.322,403.59 512.876,400.75Z" style="fill:rgb(18,48,48);fill-rule:nonzero;"/>
            </g>
            <g transform="matrix(-2.00707,0,0,2.00707,2081.05,-10.9308)">
                <path d="M532.866,363.25C523.751,353.968 512.977,341.466 513.034,340.237C513.053,339.831 516.202,342.875 520.032,347C528.101,355.691 542.302,372 541.8,372C541.612,372 537.592,368.063 532.866,363.25Z" style="fill:rgb(18,48,48);fill-rule:nonzero;"/>
            </g>
            <g transform="matrix(-2.00707,0,0,2.00707,2081.05,-10.9308)">
                <path d="M468.405,347.876L466.5,345.752L487.5,325.339C521.126,292.652 536.668,278 537.714,278C539.555,278 542.214,281.802 541.34,283.185C540.878,283.916 529.25,295.349 515.5,308.592C478.429,344.295 472.336,350 471.274,350C470.744,350 469.453,349.044 468.405,347.876Z" style="fill:rgb(18,48,48);fill-rule:nonzero;"/>
            </g>
            <g transform="matrix(-2.00707,0,0,2.00707,2081.05,-10.9308)">
                <path d="M456.393,334.975C452.602,331.072 449.379,327.543 449.231,327.133C449.083,326.723 451.784,323.713 455.231,320.444C458.679,317.175 470.5,305.938 481.5,295.475C510.943,267.467 519.155,260 520.513,260C522.002,260 533.882,273.1 533.663,274.5C533.511,275.476 465.459,341.22 464.015,341.786C463.614,341.943 460.184,338.878 456.393,334.975Z" style="fill:rgb(18,48,48);fill-rule:nonzero;"/>
            </g>
            <g transform="matrix(-2.00707,0,0,2.00707,2081.05,-10.9308)">
                <path d="M442.887,321.25C437.201,314.963 436.572,316.357 451.677,301.766C459.28,294.421 475.141,279.078 486.924,267.669L508.348,246.926L512.674,251.171C515.053,253.506 517,255.969 517,256.643C517,258.888 448.522,324 446.161,324C445.728,324 444.255,322.763 442.887,321.25Z" style="fill:rgb(18,48,48);fill-rule:nonzero;"/>
            </g>
            <g transform="matrix(-2.00707,0,0,2.00707,2081.05,-10.9308)">
                <path d="M455.559,308.096C454.553,306.468 452.026,306.769 451.323,308.601C450.47,310.823 453.134,312.294 454.868,310.56C455.621,309.807 455.932,308.699 455.559,308.096Z" style="fill:rgb(212,207,199);fill-rule:nonzero;"/>
            </g>
            <g transform="matrix(-2.00707,0,0,2.00707,2081.05,-10.9308)">
                <path d="M479.896,287.086C481.595,286.009 480.634,283 478.59,283C476.71,283 475.663,284.68 476.38,286.548C477.017,288.208 477.907,288.345 479.896,287.086Z" style="fill:rgb(212,207,199);fill-rule:nonzero;"/>
            </g>
            <g transform="matrix(-2.00707,0,0,2.00707,2081.05,-10.9308)">
                <path d="M504.559,263.904C504.932,263.301 504.552,262.123 503.714,261.286C501.892,259.463 500,260.366 500,263.059C500,265.183 503.382,265.81 504.559,263.904Z" style="fill:rgb(212,207,199);fill-rule:nonzero;"/>
            </g>
            <g transform="matrix(-2.00707,0,0,2.00707,2081.05,-10.9308)">
                <path d="M436.488,294C440.076,279.005 439.342,269.318 433.495,254.5C431.999,250.709 434.774,254.331 437.326,259.5C441.369,267.688 442.529,274.854 441.092,282.753C440.416,286.464 438.97,291.075 437.877,293C436.328,295.727 436.021,295.948 436.488,294Z" style="fill:rgb(232,145,58);fill-rule:nonzero;"/>
            </g>
            <g transform="matrix(-2.00707,0,0,2.00707,2081.05,-10.9308)">
                <path d="M460.286,248.549C455.88,247.172 447.5,242.618 446.553,241.086C446.25,240.596 449.265,241.593 453.251,243.301C459.858,246.131 461.474,246.41 471.5,246.453C477.55,246.479 484.075,246.115 486,245.645C491.587,244.279 488.316,246.579 482.069,248.409C475.588,250.307 466.107,250.368 460.286,248.549Z" style="fill:rgb(232,145,58);fill-rule:nonzero;"/>
            </g>
            <g transform="matrix(-2.00707,0,0,2.00707,2081.05,-10.9308)">
                <path d="M400,221.339C372.872,201.641 360.299,188.525 351.267,170.5C346.64,161.265 346.378,158.612 350.896,166.739C353.109,170.72 356.796,176.57 359.09,179.739C364.859,187.71 384.51,206.82 398.949,218.5C409.523,227.053 411.779,229.058 410.75,228.982C410.612,228.971 405.775,225.532 400,221.339Z" style="fill:rgb(232,145,58);fill-rule:nonzero;"/>
            </g>
            <g transform="matrix(-2.00707,0,0,2.00707,2081.05,-10.9308)">
                <path d="M416.34,206.25C398.859,181.467 379.92,160.348 368.596,153.01C358.812,146.669 358.016,145.71 365.614,149.418C374.032,153.525 385.379,162.32 392.905,170.573C395.878,173.833 403.341,184.15 409.491,193.5C422.139,212.731 422.306,213 421.61,213C421.33,213 418.959,209.962 416.34,206.25Z" style="fill:rgb(232,145,58);fill-rule:nonzero;"/>
            </g>
            <g transform="matrix(-2.00707,0,0,2.00707,2081.05,-10.9308)">
                <path d="M358.174,169.686C351.254,162.319 361.411,151.32 368.545,158.455C370.093,160.002 371,162.052 371,164C371,170.768 362.663,174.464 358.174,169.686Z" style="fill:rgb(18,48,48);fill-rule:nonzero;"/>
            </g>
        </g>
    </g>
    <g transform="matrix(5.52337,0,0,5.52337,-5120.92,-4157.42)">
        <g transform="matrix(50,0,0,50,1304.71,974.819)">
        </g>
        <text x="947.949px" y="974.819px" style="font-family:'Oswald-Bold', 'Oswald';font-weight:700;font-size:50px;fill:rgb(232,145,58);">WOODFINISH.ORG</text>
    </g>
</svg>
